<?xml version="1.0" standalone="no"?>
<!DOCTYPE svg PUBLIC "-//W3C//DTD SVG 1.1//EN" "http://www.w3.org/Graphics/SVG/1.1/DTD/svg11.dtd" >
<svg xmlns="http://www.w3.org/2000/svg">
<metadata></metadata>
<defs>
<font id="utopiaregular" horiz-adv-x="1085" >
<font-face units-per-em="2048" ascent="1638" descent="-410" />
<missing-glyph horiz-adv-x="460" />
<glyph horiz-adv-x="0" />
<glyph unicode="&#xd;" horiz-adv-x="681" />
<glyph unicode=" "  horiz-adv-x="460" />
<glyph unicode="&#x09;" horiz-adv-x="460" />
<glyph unicode="&#xa0;" horiz-adv-x="460" />
<glyph unicode="!" horiz-adv-x="495" d="M119 104q0 57 35.5 95.5t93.5 38.5q59 0 94 -38t35 -96q-2 -57 -36 -93t-93 -36q-57 0 -93 37t-36 92zM135 1311q-6 76 14.5 106.5t98.5 30.5q80 0 100.5 -31t13.5 -106l-86 -883h-59z" />
<glyph unicode="&#x22;" horiz-adv-x="937" d="M209 1411q-14 109 92.5 109t91.5 -109l-71 -461h-41zM547 1411q-14 109 92 109t92 -109l-72 -461h-41z" />
<glyph unicode="#" d="M23 475l24 94h217l68 273h-219l24 94h217l107 432h110l-106 -432h276l107 432h108l-106 -432h213l-21 -94h-215l-67 -273h213l-21 -94h-215l-116 -475h-111l119 475h-277l-116 -475h-113l119 475h-219zM375 569h276l68 273h-277z" />
<glyph unicode="$" d="M90 225q0 43 31 74t63 31q37 0 60 -45q100 -209 254 -213v565q-205 61 -294 154.5t-89 222.5q0 168 112.5 258t270.5 94v156h82v-154q168 -4 263 -70.5t95 -140.5q0 -41 -32 -62.5t-62 -21.5q-39 0 -56 41q-69 172 -208 182v-497q211 -59 314 -160.5t103 -263.5 q0 -94 -36.5 -167t-87 -111t-114 -61.5t-105.5 -29.5t-74 -6v-209h-82v209q-207 6 -307.5 81t-100.5 144zM276 1069q0 -102 61 -154.5t161 -85.5v465q-82 0 -152 -55t-70 -170zM580 72q92 -2 165.5 54t73.5 185q0 127 -62 194.5t-177 104.5v-538z" />
<glyph unicode="%" horiz-adv-x="1716" d="M102 1018q0 180 81 277.5t241 97.5q133 0 227 -70q41 -27 88 -27h346q55 4 87 17.5t59 50.5l49 70l70 -43l-901 -1442l-74 55l766 1227h-420q27 -72 27 -213q0 -180 -81 -277.5t-243 -97.5q-160 0 -241 97.5t-81 277.5zM254 1018q0 -147 45 -228t125 -81q82 0 127 80.5 t45 228.5q0 309 -172 309q-80 0 -125 -76.5t-45 -232.5zM969 350q0 180 80.5 277.5t240.5 97.5q162 0 243 -97.5t81 -277.5t-81 -277.5t-243 -97.5q-160 0 -240.5 97.5t-80.5 277.5zM1120 350q0 -147 45 -228t125 -81q82 0 127 81t45 228q0 309 -172 309q-80 0 -125 -76.5 t-45 -232.5z" />
<glyph unicode="&#x26;" horiz-adv-x="1445" d="M94 360q0 72 24.5 132.5t76 108.5t91.5 78t107 71q-41 51 -65.5 89t-47 100t-22.5 128q0 135 95.5 230.5t238.5 95.5q129 0 216 -76t87 -207q0 -59 -21.5 -107.5t-69.5 -88.5t-91 -66.5t-117 -65.5q193 -236 430 -452q160 186 125 522q80 45 156 35q57 -111 24 -211 q-59 -172 -252 -397q78 -76 175.5 -150t162.5 -92l-10 -51l-43 4q-221 18 -340 114l-57 46q-199 -175 -426 -175q-197 0 -323 102.5t-124 282.5zM293 401q0 -143 88 -234t221 -91q164 0 309 125q-268 241 -477 491q-141 -123 -141 -291zM416 1118q0 -137 133 -287 q188 131 188 291q0 86 -39.5 142.5t-113.5 56.5q-68 0 -118 -56.5t-50 -146.5z" />
<glyph unicode="'" horiz-adv-x="569" d="M193 1411q-14 109 92 109t92 -109l-72 -461h-41z" />
<glyph unicode="(" horiz-adv-x="716" d="M215 577.5q0 155.5 21.5 292t68.5 263.5t139.5 202.5t221.5 81.5v-51q-53 -10 -103.5 -53t-98.5 -129t-77 -242t-29 -364.5t31 -366.5t80 -242t97 -127t100 -53v-51q-129 6 -221.5 82t-139.5 203t-68.5 263t-21.5 291.5z" />
<glyph unicode=")" horiz-adv-x="716" d="M51 -211q51 10 99.5 53t97.5 127t79.5 242t30.5 366.5t-28.5 364.5t-76.5 242t-98.5 129t-103.5 53v51q129 -6 221.5 -81.5t139.5 -202.5t68.5 -263.5t21.5 -292t-21.5 -291.5t-68.5 -263t-139.5 -203t-221.5 -82v51z" />
<glyph unicode="*" horiz-adv-x="843" d="M117 1286q43 63 98 14l156 -131q16 -14 24 -8t2 31l-39 192q-12 64 64 64t63 -64l-39 -192q-6 -25 2.5 -31t24.5 8l158 134q57 49 98 -17q41 -68 -27 -92l-196 -78q-18 -6 -25.5 -13t-2.5 -14.5t22 -13.5l196 -80q33 -14 41 -41.5t-14 -58.5q-45 -63 -98 -10l-148 141 q-20 18 -27.5 10t-3.5 -35l39 -190q18 -82 -63.5 -82t-63.5 82l39 190q4 27 -3 35t-27 -10l-148 -139q-55 -51 -98 8q-45 72 26 100l197 80q16 6 21.5 13.5t-2 14.5t-25.5 13l-195 76q-72 29 -26 94z" />
<glyph unicode="+" horiz-adv-x="1167" d="M88 453v118h426v433h139v-433h426v-118h-426v-453h-139v453h-426z" />
<glyph unicode="," horiz-adv-x="542" d="M104 -250q119 129 119 238q0 45 -33.5 104.5t-33.5 93.5q0 43 27.5 73t72.5 30q55 2 97 -50.5t42 -134.5q0 -57 -21.5 -112t-69.5 -112.5t-75 -85.5t-86 -83z" />
<glyph unicode="-" horiz-adv-x="802" d="M152 442v144h501v-144h-501z" />
<glyph unicode="." horiz-adv-x="542" d="M143 104q0 57 36 95.5t93 38.5q59 0 94 -38t35 -96q-2 -57 -36 -93t-93 -36q-57 0 -93 37t-36 92z" />
<glyph unicode="/" horiz-adv-x="942" d="M188 -31l430 1479h138l-430 -1479h-138z" />
<glyph unicode="0" d="M84 684q0 709 458.5 709t458.5 -709t-458.5 -709t-458.5 709zM293 684q0 -637 250 -637t250 637t-250 637t-250 -637z" />
<glyph unicode="1" d="M223 0v59l172 15q35 4 49 22q18 20 19 78v993q0 43 -11.5 59.5t-37.5 20.5l-191 23v51l422 72l10 -13v-1206q0 -55 16.5 -75.5t51.5 -24.5l172 -15v-59h-672z" />
<glyph unicode="2" d="M55 20q31 125 114 243t265 276q152 135 220.5 241.5t68.5 257.5q0 283 -203 283q-90 0 -151.5 -69.5t-87.5 -182.5q-12 -55 -60 -55q-35 0 -73.5 27.5t-38.5 74.5q0 94 116.5 185.5t309.5 91.5q178 0 290.5 -91.5t112.5 -291.5q0 -78 -21.5 -139.5t-66.5 -111.5t-95 -91 t-124 -95q-27 -18 -41 -28q-139 -100 -229.5 -203.5t-114.5 -185.5h524q66 0 100.5 23.5t65.5 101.5l57 -11l-69 -270h-848z" />
<glyph unicode="3" d="M55 209q0 49 37 81t72 32q43 0 61 -58q33 -94 99.5 -155.5t162.5 -61.5q119 0 193 79t74 251q0 141 -74 238.5t-199 97.5q-57 0 -115.5 -10.5t-62.5 -10.5q-37 0 -37 57.5t37 57.5q4 0 62.5 -10.5t115.5 -10.5q119 0 168 82t49 195q0 66 -15 119t-62.5 96t-122.5 43 q-164 0 -238 -229q-12 -41 -51 -41q-29 0 -64.5 27.5t-35.5 70.5q0 80 109.5 162t293.5 82q176 0 286.5 -83t110.5 -245q0 -135 -90 -210t-198 -93v-8q49 -4 103 -23.5t112.5 -59.5t95.5 -114t37 -170q0 -195 -129 -303.5t-355 -108.5q-197 0 -313.5 77t-116.5 157z" />
<glyph unicode="4" d="M39 410q274 465 610 958h150v-905h211v-96h-211v-209q0 -51 12 -67.5t49 -20.5l92 -11v-59h-540v59l131 13q39 4 55 20.5t16 65.5v209h-557zM186 463h428v706h-4q-260 -407 -424 -706z" />
<glyph unicode="5" d="M82 209q0 47 37 77.5t71 30.5q41 0 58 -49q78 -221 258 -221q129 0 196.5 102.5t67.5 268.5q0 186 -81 276t-193 90q-154 0 -281 -145l-49 25l41 686l20 18h684l11 -16l-50 -140h-510q-31 0 -43 -11t-16 -48l-47 -383l4 -4q51 47 134 77.5t165 30.5q190 0 307 -112.5 t117 -321.5q0 -207 -125 -336t-366 -129q-184 0 -297 76t-113 158z" />
<glyph unicode="6" d="M90 633q0 414 162 600q139 160 362 160q166 0 256.5 -72t90.5 -147q0 -41 -36 -67t-73 -26q-43 0 -53 43q-25 90 -74 143.5t-117 53.5q-145 0 -229 -154.5t-86 -478.5h4q147 180 334 176q166 4 278.5 -110.5t112.5 -315.5q0 -213 -121 -338t-344 -125q-467 0 -467 658z M297 483q0 -193 67.5 -314.5t196.5 -121.5q125 0 190.5 97.5t65.5 263.5q0 168 -76 260t-180 92q-121 0 -192.5 -86t-71.5 -191z" />
<glyph unicode="7" d="M84 1081l63 287h852l19 -22q-25 -90 -62.5 -176.5t-68.5 -138.5t-89.5 -146t-90.5 -154q-168 -295 -154 -678q2 -43 -24.5 -60.5t-75.5 -17.5q-111 0 -111 84q0 170 75 344.5t218 378.5q172 246 223 430h-553q-66 0 -94.5 -20.5t-50.5 -67.5l-21 -43h-55z" />
<glyph unicode="8" d="M86 373q0 147 79 240.5t191 119.5v6q-98 27 -161.5 106t-63.5 199q0 162 115.5 255.5t296.5 93.5q182 0 296.5 -92.5t114.5 -256.5q0 -121 -63.5 -199.5t-161.5 -105.5v-6q115 -27 192.5 -120t77.5 -240q0 -172 -111.5 -285t-345 -113t-345 113t-111.5 285zM291 367 q0 -141 64.5 -230.5t187.5 -89.5q125 0 188.5 88t63.5 232q0 145 -66.5 235t-185.5 90t-185.5 -91t-66.5 -234zM330 1049q0 -115 54 -199t158.5 -84t159 83t54.5 200q-4 123 -58.5 197.5t-154.5 74.5q-102 0 -157.5 -75t-55.5 -197z" />
<glyph unicode="9" d="M74 936q0 209 126 333t324 124q205 0 322 -138q131 -158 131 -516q0 -406 -135 -594q-123 -170 -371 -170q-170 0 -263 68t-93 147q0 45 31.5 75t64.5 30q45 0 57 -43q29 -92 78 -148.5t143 -56.5q174 0 240 238q47 180 47 436h-4q-119 -172 -303 -172 q-168 0 -281.5 101.5t-113.5 285.5zM279 993q0 -150 67 -243t184 -93q80 0 138.5 44t83.5 118q14 39 14 109q0 162 -63.5 277.5t-180 115.5t-180 -91t-63.5 -237z" />
<glyph unicode=":" horiz-adv-x="542" d="M143 104q0 57 36 95.5t93 38.5q59 0 94 -38t35 -96q-2 -57 -36 -93t-93 -36q-57 0 -93 37t-36 92zM143 872q0 55 36 93.5t93 38.5q59 0 94 -37t35 -95q-2 -57 -36 -94t-93 -37q-57 0 -93 37t-36 94z" />
<glyph unicode=";" horiz-adv-x="542" d="M104 -250q119 129 119 238q0 45 -33.5 104.5t-33.5 93.5q0 43 27.5 73t72.5 30q55 2 97 -50.5t42 -134.5q0 -57 -21.5 -112t-69.5 -112.5t-75 -85.5t-86 -83zM143 872q0 55 36 93.5t93 38.5q59 0 94 -37t35 -95q-2 -57 -36 -94t-93 -37q-57 0 -93 37t-36 94z" />
<glyph unicode="&#x3c;" horiz-adv-x="1167" d="M94 430v164l979 428v-141l-858 -369l858 -369v-141z" />
<glyph unicode="=" horiz-adv-x="1167" d="M88 227v119h991v-119h-991zM88 678v119h991v-119h-991z" />
<glyph unicode="&#x3e;" horiz-adv-x="1167" d="M94 2v141l858 369l-858 369v141l979 -428v-164z" />
<glyph unicode="?" horiz-adv-x="796" d="M59 1210q0 29 18.5 66t55.5 77t110.5 66.5t168.5 28.5q145 0 233 -70.5t90 -208.5q0 -27 -4 -51t-14 -46.5t-18.5 -39t-25 -35t-24.5 -29t-29.5 -27.5t-27.5 -21.5t-31 -20.5l-22 -16q-156 -109 -156 -236q0 -74 47 -111.5t92 -37.5q33 0 62 8l16 -41q-70 -57 -197 -57 q-88 0 -153.5 53t-65.5 145q0 68 36 117t130 123q76 57 129 145t53 178q0 207 -131 207q-127 0 -168 -219q-8 -49 -65 -49q-35 0 -72 25.5t-37 76.5zM262 102.5q0 55.5 36 92t91 36.5q57 0 92 -36.5t35 -92.5q-2 -57 -36 -92t-91 -35t-92 36t-35 91.5z" />
<glyph unicode="@" horiz-adv-x="1624" d="M94 621q0 250 120 442t305.5 288.5t400.5 96.5q285 0 455.5 -172t170.5 -428q0 -207 -138 -351.5t-323 -144.5q-100 0 -129.5 59.5t15.5 221.5l-4 2q-55 -98 -163 -191.5t-212 -91.5q-55 2 -95 41t-40 129q0 49 18.5 118t59 148.5t98 146t146.5 112t194 45.5 q61 0 112 -27l9 16h133l-135 -528q-31 -123 69 -123q104 0 193.5 126t89.5 282q4 244 -144.5 385t-375.5 141q-199 0 -354.5 -106.5t-235.5 -272.5t-80 -356q0 -102 29.5 -197.5t94 -184.5t186.5 -143.5t286 -54.5q197 0 346 64l16 -52q-168 -92 -419 -92q-131 0 -254 41 t-223.5 118t-161 205t-60.5 288zM625 553q-1 -104 69 -104q100 0 222 195.5t155 359.5q-43 29 -96 28q-76 0 -144.5 -56t-111.5 -136t-68.5 -159t-25.5 -128z" />
<glyph unicode="A" horiz-adv-x="1300" d="M-59 0v59q94 4 125.5 30t64.5 112q51 131 221 610l215 606h152l434 -1235q27 -78 56.5 -96t121.5 -27v-59h-524v59l92 9q49 4 61 24q5 8 4 19q0 18 -10 45l-137 391h-459q-102 -319 -125 -395q-14 -41 -3.5 -59.5t55.5 -22.5l106 -11v-59h-450zM385 625h408l-203 585h-6 q-182 -537 -199 -585z" />
<glyph unicode="B" horiz-adv-x="1323" d="M72 0v59q135 8 159.5 26.5t24.5 104.5v1037q0 86 -24.5 104.5t-159.5 26.5v59h592h24q230 0 338 -74q127 -86 127 -251q0 -119 -81 -203t-224 -113v-4q164 -23 267.5 -114t103.5 -261q0 -397 -512 -397h-635zM459 229q0 -96 38 -126.5t158 -30.5q344 0 344 311 q0 164 -102 254t-291 90h-147v-498zM459 799h137q342 0 342 280q0 98 -49 162q-49 63 -115 85q-61 20 -135 20h-14q-117 -2 -141.5 -18.5t-24.5 -84.5v-444z" />
<glyph unicode="C" horiz-adv-x="1400" d="M98 698q0 330 187 539q188 211 577 211q262 0 434 -80v-319h-61q-53 327 -391 327h-2q-137 0 -239.5 -56t-161 -153.5t-86 -213t-27.5 -248.5q0 -84 12 -166t47 -174.5t89 -162t147.5 -115.5t214.5 -46q188 0 285.5 95t144.5 274h61l-29 -342q-76 -41 -203.5 -70 t-246.5 -29q-383 0 -557 174q-195 195 -195 555z" />
<glyph unicode="D" horiz-adv-x="1595" d="M72 0v59q135 8 159.5 26.5t24.5 104.5v1037q0 86 -24.5 104.5t-159.5 26.5v59h680q375 -4 561 -178q184 -178 184 -506q0 -418 -266 -602q-190 -131 -520 -131h-639zM459 256q0 -119 39 -151.5t174 -32.5q137 0 239.5 30.5t186.5 101t127 202t43 319.5q0 610 -572 621 q-164 0 -200.5 -18.5t-36.5 -98.5v-973z" />
<glyph unicode="E" horiz-adv-x="1241" d="M72 0v59q135 8 159.5 26.5t24.5 104.5v1037q0 86 -24.5 104.5t-159.5 26.5v59h1034v-336h-62q-23 162 -80 213.5t-229 51.5h-200q-49 0 -62.5 -12.5t-13.5 -61.5v-496h286q66 0 103 8.5t56.5 34t26.5 51t15 82.5h62v-432h-62q-8 59 -15 84t-26.5 51.5t-56.5 34.5t-103 8 h-286v-452q0 -78 10 -109t41 -45q53 -20 213 -20q205 0 283.5 51t113.5 231h62l-25 -354h-1085z" />
<glyph unicode="F" horiz-adv-x="1187" d="M72 0v59q135 8 159.5 26.5t24.5 104.5v1037q0 86 -24.5 104.5t-159.5 26.5v59h1040v-327h-61q-23 160 -80.5 208t-233.5 48h-202q-51 0 -63.5 -11.5t-12.5 -62.5v-524h286q66 0 103 8t56.5 34.5t26.5 52t15 85.5h62v-439h-62q-8 59 -15 85t-26.5 52.5t-56.5 35t-103 8.5 h-286v-480q0 -86 29.5 -104t187.5 -27v-59h-604z" />
<glyph unicode="G" horiz-adv-x="1503" d="M98 682q0 311 154 514q195 252 629 252q268 0 440 -84v-322h-61q-61 334 -400 334q-117 0 -210 -38t-152.5 -101t-98.5 -150.5t-55 -178.5t-16 -193q0 -86 12 -169t49 -178.5t96.5 -165t163 -115.5t238.5 -46q100 0 180 31q35 14 52.5 36.5t17.5 73.5v277 q0 55 -12.5 75.5t-54.5 32t-150 19.5v59h565v-59q-100 -10 -123 -29.5t-23 -97.5v-404q-270 -86 -471 -86q-328 0 -516 131q-115 82 -184.5 235.5t-69.5 346.5z" />
<glyph unicode="H" horiz-adv-x="1634" d="M72 0v59q135 8 159.5 26.5t24.5 104.5v1037q0 86 -24.5 104.5t-159.5 26.5v59h571v-59q-133 -10 -158.5 -27.5t-25.5 -103.5v-451h717v451q0 86 -25 104.5t-160 26.5v59h572v-59q-133 -10 -159 -27.5t-26 -103.5v-1037q0 -86 26 -103t159 -28v-59h-572v59q135 8 160 26.5 t25 104.5v508h-717v-508q0 -86 25.5 -103t158.5 -28v-59h-571z" />
<glyph unicode="I" horiz-adv-x="714" d="M72 0v59q135 8 159.5 26.5t24.5 104.5v1037q0 86 -24.5 104.5t-159.5 26.5v59h571v-59q-133 -10 -158.5 -27.5t-25.5 -103.5v-1037q0 -86 25.5 -103t158.5 -28v-59h-571z" />
<glyph unicode="J" horiz-adv-x="716" d="M0 -182q129 33 190 106q84 102 84 357v946q0 86 -24.5 104.5t-159.5 26.5v59h572v-59q-133 -10 -159 -27.5t-26 -103.5v-934q0 -182 -41 -294t-168 -169q-123 -57 -258 -63z" />
<glyph unicode="K" horiz-adv-x="1347" d="M72 0v59q135 8 159.5 26.5t24.5 104.5v1037q0 86 -24.5 104.5t-159.5 26.5v59h571v-59q-133 -10 -158.5 -27.5t-25.5 -103.5v-484q338 348 497 527q31 37 31 58t-33 24l-77 6v59h497v-59q-127 -8 -183 -30.5t-138 -96.5q-205 -178 -418 -414q193 -289 493 -610 q139 -147 238 -168v-49l-129 6q-205 6 -354 176q-217 246 -418 551l-2 8h-4v-541q0 -86 25.5 -103t158.5 -28v-59h-571z" />
<glyph unicode="L" horiz-adv-x="1163" d="M72 0v59q135 8 159.5 26.5t24.5 104.5v1037q0 86 -24.5 104.5t-159.5 26.5v59h583v-59q-143 -10 -169.5 -27.5t-26.5 -103.5v-981q0 -78 10 -109t41 -45q53 -20 219 -20q180 0 260 53t109 242h61l-24 -367h-1063z" />
<glyph unicode="M" horiz-adv-x="1933" d="M68 1358v59h415q33 -80 73 -172t89 -200.5t78 -172.5l242 -546h4l245 548q176 389 236 543h412v-59q-133 -10 -159 -27.5t-26 -103.5v-1037q0 -86 26 -103t159 -28v-59h-572v59q135 8 160 26.5t25 104.5v1039h-7l-534 -1204h-55l-529 1204h-4v-813q0 -160 14 -254 q8 -59 46 -76.5t149 -26.5v-59h-485v59q90 6 124.5 24.5t43.5 78.5q14 94 14 254v811q0 86 -24.5 104.5t-159.5 26.5z" />
<glyph unicode="N" horiz-adv-x="1597" d="M70 1358v59h393l799 -1130l4 -4v718q0 160 -15 254q-8 59 -46 77t-148 26v59h485v-59q-90 -6 -125 -24.5t-43 -78.5q-14 -94 -14 -254v-1001h-135l-873 1233h-4v-817q0 -160 14 -254q8 -59 46 -76.5t149 -26.5v-59h-485v59q90 6 124.5 24.5t43.5 78.5q14 94 14 254v811 q0 86 -24.5 104.5t-159.5 26.5z" />
<glyph unicode="O" horiz-adv-x="1560" d="M98 709q0 348 174 540q177 199 508.5 199t507.5 -199q174 -190 174 -540.5t-174 -540.5q-176 -199 -507.5 -199t-508.5 199q-174 193 -174 541zM328 709q2 -98 13 -185.5t43 -178.5t80 -156.5t130 -106.5t186.5 -41t186.5 41t130 106.5t79.5 156.5t43 178t13.5 186 q-2 98 -13.5 185t-43 178t-79.5 156.5t-130 106.5t-186.5 41t-186.5 -41t-130 -106.5t-80 -156.5t-43 -178t-13 -185z" />
<glyph unicode="P" horiz-adv-x="1228" d="M72 0v59q135 8 159.5 26.5t24.5 104.5v1037q0 86 -24.5 104.5t-159.5 26.5v59h571q242 0 373 -82q160 -100 160 -319q0 -174 -98.5 -272.5t-239.5 -135.5q-105 -26 -252 -26h-11h-116v-392q0 -86 29.5 -104t187.5 -27v-59h-604zM459 733q0 -55 27.5 -67.5t123.5 -12.5 q147 0 245.5 85t98.5 263q0 166 -90 255.5t-250 89.5q-96 0 -125.5 -15.5t-29.5 -60.5v-537z" />
<glyph unicode="Q" horiz-adv-x="1560" d="M98 709q0 348 174 540q177 199 508.5 199t507.5 -199q174 -190 174 -540.5t-174 -540.5q-133 -150 -346 -184q41 -74 119 -158q139 -152 266 -152q33 0 53 2l6 -32q-63 -39 -172 -39q-160 0 -296 100t-218 268q-274 18 -428 195q-174 193 -174 541zM328 709 q2 -98 13 -185.5t43 -178.5t80 -156.5t130 -106.5t186.5 -41t186.5 41t130 106.5t79.5 156.5t43 178t13.5 186q-2 98 -13.5 185t-43 178t-79.5 156.5t-130 106.5t-186.5 41t-186.5 -41t-130 -106.5t-80 -156.5t-43 -178t-13 -185z" />
<glyph unicode="R" horiz-adv-x="1318" d="M72 0v59q135 8 159.5 26.5t24.5 104.5v1037q0 86 -24.5 104.5t-159.5 26.5v59h598q254 0 367.5 -95t113.5 -255q0 -141 -92 -236.5t-242 -123.5v-5q150 -37 203 -123.5t76 -248.5q16 -125 59 -192.5t152 -78.5v-59h-166q-188 0 -230 176q-12 51 -32.5 169t-26.5 144 q-45 179 -252 179h-141v-478q0 -86 25.5 -103t158.5 -28v-59h-571zM459 739h162q311 0 311 310q0 164 -93.5 230.5t-230.5 66.5q-98 0 -123.5 -18.5t-25.5 -84.5v-504z" />
<glyph unicode="S" horiz-adv-x="1107" d="M102 420h66q39 -176 134 -277.5t237 -101.5q137 0 216 76t79 207q0 84 -56.5 154.5t-112 101t-116.5 55.5l-37 14q-182 63 -284.5 158.5t-102.5 245.5q0 193 135 294t336 101q236 0 348 -90v-289h-63q-49 307 -308 307q-125 0 -193.5 -71.5t-68.5 -188.5q0 -86 70 -153.5 t182 -108.5l66 -25q199 -74 301 -174t102 -270q0 -174 -126 -295t-380 -121q-115 0 -227.5 32t-175.5 91z" />
<glyph unicode="T" horiz-adv-x="1271" d="M45 1077v340h1182v-340h-62q-18 170 -73.5 219.5t-233.5 49.5h-121v-1156q0 -86 31 -104t195 -27v-59h-654v59q164 8 195 26.5t31 104.5v1156h-121q-178 0 -233.5 -49.5t-74.5 -219.5h-61z" />
<glyph unicode="U" horiz-adv-x="1619" d="M59 1358v59h572v-59q-133 -10 -159 -27.5t-26 -103.5v-664q0 -276 93 -399q96 -123 270 -123q176 0 272 123q92 123 93 399v664q0 86 -25 104.5t-160 26.5v59h572v-59q-133 -10 -159 -27.5t-26 -103.5v-705q0 -188 -55 -303q-117 -250 -512 -250q-393 0 -510 250 q-51 104 -55 299v709q0 86 -24.5 104.5t-160.5 26.5z" />
<glyph unicode="V" horiz-adv-x="1298" d="M-37 1358v59h529v-59l-107 -10q-37 -2 -44 -18.5t5 -55.5q61 -186 180 -522l191 -527l4 -4l213 588q133 373 160 475q10 29 0.5 45.5t-45.5 18.5l-113 10v59h453v-59q-88 -4 -118 -20.5t-61 -86.5q-76 -166 -215 -544l-262 -707h-145l-232 655l-213 582 q-31 80 -61.5 98.5t-118.5 22.5z" />
<glyph unicode="W" horiz-adv-x="1925" d="M-27 1358v59h514v-59l-102 -10q-37 -4 -46 -18q-4 -6 -4 -20q0 -17 7 -46q156 -614 279 -1018h4l313 1134h154l346 -1134h6l151 585q96 365 109 437q3 13 3 25q0 47 -48 53l-127 12v59h469v-59q-98 -6 -129 -27.5t-62 -109.5q-12 -31 -141 -490l-205 -731h-155 q-168 590 -342 1135h-4l-322 -1135h-158l-174 653l-162 572q-25 88 -52 108.5t-122 24.5z" />
<glyph unicode="X" horiz-adv-x="1277" d="M-39 0v59q100 10 134 26.5t85 84.5q49 66 190.5 276.5t176.5 260.5l-328 522q-53 84 -90 105.5t-133 23.5v59h528v-59l-98 -10q-34 -4 -34 -28q0 -16 16 -42l256 -401h4q156 225 264 405q15 24 15 40q0 24 -34 28l-98 8v59h453v-59q-92 -4 -131 -24.5t-105 -100.5 q-143 -176 -319 -436l401 -621q45 -70 83 -89t149 -28v-59h-582v59l113 13q44 4 44 28q0 13 -12 31l-311 494h-4q-172 -266 -297 -496q-11 -18 -11 -30q0 -21 33 -25l132 -15v-59h-490z" />
<glyph unicode="Y" horiz-adv-x="1204" d="M-25 1358v59h531v-59l-121 -12q-31 -4 -31 -30q0 -13 8 -32q127 -279 316 -618h4q231 453 299 616q8 20 8 34q0 27 -33 32l-110 10v59h448v-59q-100 -4 -132 -25.5t-87 -109.5q-117 -188 -321 -598q-27 -53 -27 -121v-314q0 -86 29.5 -104t187.5 -27v-59h-637v59 q158 8 187.5 26.5t29.5 104.5v306q0 59 -30 118q-129 260 -336 641q-33 63 -66 81t-117 22z" />
<glyph unicode="Z" horiz-adv-x="1249" d="M18 27l916 1319h-367q-209 0 -273.5 -51.5t-82.5 -229.5h-66v352h1047l12 -26l-915 -1319h413q246 0 334 53t115 240h66l-21 -365h-1167z" />
<glyph unicode="[" horiz-adv-x="675" d="M272 -262v1679h326v-55q-137 -6 -167 -23.5t-30 -89.5v-1343q0 -72 30 -89.5t167 -23.5v-55h-326z" />
<glyph unicode="\" horiz-adv-x="942" d="M186 1448h138l432 -1479h-138z" />
<glyph unicode="]" horiz-adv-x="675" d="M78 -207q137 6 166.5 23.5t29.5 89.5v1343q0 72 -29.5 89.5t-166.5 23.5v55h325v-1679h-325v55z" />
<glyph unicode="^" horiz-adv-x="1167" d="M115 467l401 901h146l391 -901h-146l-319 760l-328 -760h-145z" />
<glyph unicode="_" horiz-adv-x="1024" d="M0 -154h1024v-102h-1024v102z" />
<glyph unicode="`" horiz-adv-x="819" d="M100 1393q0 29 28 58.5t52 29.5q49 0 131 -84l244 -246l-31 -41l-309 172q-115 61 -115 111z" />
<glyph unicode="a" horiz-adv-x="1071" d="M100 266q0 186 191 244q31 10 97.5 29.5t104 32t87 29.5t79 33.5t43.5 31.5v86q0 111 -51 157.5t-123 46.5q-152 0 -211 -200q-16 -57 -65 -58q-37 0 -76 26t-39 71q0 88 123 160.5t291 72.5q111 0 182.5 -24.5t102 -68.5t41 -84t10.5 -95v-496q0 -160 71 -176 q20 -6 44 -6q28 0 61 8l12 -49q-123 -61 -241 -62q-51 0 -80 31t-54 92q-180 -119 -305 -123q-137 0 -216 84t-79 207zM307 295q0 -94 48 -152.5t141 -58.5q78 0 142 49t64 160v289q-39 -25 -235 -99q-86 -33 -123 -74.5t-37 -113.5z" />
<glyph unicode="b" horiz-adv-x="1224" d="M41 1417v51l321 52l15 -13v-624q6 4 62.5 39.5t87 52t89 35t113.5 18.5q104 0 182 -42t117 -98.5t62.5 -133t28.5 -128t5 -102.5q0 -152 -41 -261t-113.5 -170.5t-159.5 -89.5t-196 -28q-172 0 -311 80l-82 -80l-37 17v1323q0 57 -12 73.5t-53 20.5zM377 334 q0 -86 14 -129q57 -158 225 -158q295 0 295 465q0 125 -28.5 212t-73.5 126t-84 53.5t-78 14.5q-178 0 -250 -144q-20 -41 -20 -117v-323z" />
<glyph unicode="c" horiz-adv-x="1015" d="M100 492q0 109 27 199.5t82 168.5t154.5 123t234.5 45q158 0 257 -61.5t99 -137.5q0 -51 -40 -77.5t-80 -26.5q-43 0 -64 53q-66 178 -195 178q-115 0 -188.5 -105.5t-73.5 -322.5q0 -80 13.5 -152.5t45 -142t94 -110.5t148.5 -41q109 0 177.5 53t117.5 164l60 -29 q-27 -102 -96.5 -171.5t-144.5 -96.5t-153 -27q-231 0 -353 131.5t-122 385.5z" />
<glyph unicode="d" horiz-adv-x="1224" d="M100 481q0 258 142 406q137 141 379 141q135 0 227 -49v336q0 57 -12.5 73.5t-53.5 20.5l-77 8v51l321 52l14 -13v-1329q0 -78 21.5 -94t132.5 -25v-59h-332l-16 14v101q-170 -139 -318 -140q-201 0 -314.5 138.5t-113.5 367.5zM313 506q0 -184 74 -302t209 -118 q180 0 238 147q14 41 14 115v361q0 80 -19 118q-57 129 -211 129q-152 0 -228.5 -121.5t-76.5 -328.5z" />
<glyph unicode="e" horiz-adv-x="1052" d="M100 494q0 242 120 388t351 146q106 0 186.5 -31.5t122.5 -77t67.5 -106.5t31.5 -106t6 -91q0 -77 -82 -77h-590v-23q0 -436 301 -436q111 0 179.5 57.5t117.5 159.5l62 -33q-98 -287 -400 -289h-7q-240 1 -352 133q-114 134 -114 386zM315 616h387q41 0 55.5 16.5 t14.5 49.5q0 29 -3 59.5t-16.5 71.5t-36 70.5t-63.5 51t-94 21.5q-74 0 -127 -39.5t-75.5 -100t-32 -110t-9.5 -90.5z" />
<glyph unicode="f" horiz-adv-x="653" d="M61 922v82h158v71q0 213 68 316q39 59 107.5 94t152.5 35q115 0 182.5 -46.5t67.5 -103.5q0 -43 -33 -69.5t-68 -26.5q-37 0 -55 35q-35 82 -68.5 110.5t-70.5 28.5q-99 0 -99 -196v-19l9 -229h250v-82h-250v-746q0 -78 27.5 -94t166.5 -23v-59h-540v59q111 8 132 24.5 t21 94.5v744h-158z" />
<glyph unicode="g" horiz-adv-x="1064" d="M86 -197q0 51 22.5 92.5t64.5 67t71.5 38.5t77.5 28v4q-72 8 -126.5 56t-54.5 104q0 109 189 182v4q-86 23 -153.5 98.5t-67.5 206.5q0 133 104 238.5t319 105.5q171 0 265 -63l262 84l16 -19l-41 -129l-162 -24q61 -61 62 -193q0 -117 -64.5 -195.5t-153.5 -108.5 t-196 -30q-45 0 -104 6q-35 -10 -70 -35.5t-35 -64.5q0 -88 170 -88h164q178 0 286.5 -71.5t108.5 -227.5q0 -182 -161 -281q-139 -84 -351 -84q-190 0 -316 76t-126 223zM281 -186q0 -109 80.5 -173.5t213.5 -64.5q119 0 206 63.5t87 178.5q0 196 -310 196h-3 q-150 0 -211 -47q-63 -49 -63 -153zM317 684q0 -125 60.5 -193.5t150.5 -68.5q92 0 150.5 68.5t58.5 193.5q0 137 -60.5 204.5t-144.5 67.5q-92 0 -153.5 -65.5t-61.5 -206.5z" />
<glyph unicode="h" horiz-adv-x="1243" d="M43 0v59q106 7 130 25q22 16 22 83v11v1137q0 53 -12.5 69.5t-53.5 22.5l-78 10v51l320 52l14 -13v-635q158 104 221 129q72 27 150 27q143 0 223 -85t80 -241v-524q0 -76 23.5 -93t129.5 -26v-59h-499v59q106 8 129.5 25.5t23.5 93.5v484q0 256 -215 256 q-78 0 -145.5 -43.5t-99.5 -106.5q-18 -35 -19 -111v-479q0 -76 23.5 -93t130.5 -26v-59h-498z" />
<glyph unicode="i" horiz-adv-x="595" d="M66 0v59q111 8 132 24.5t21 94.5v645q0 53 -12 69.5t-53 22.5l-78 11v51l321 51l15 -12v-838q0 -78 21.5 -94t131.5 -25v-59h-499zM188 1337q0 55 35 91t90.5 36t90 -35.5t34.5 -91.5q-2 -55 -35.5 -89t-89 -34t-90.5 35t-35 88z" />
<glyph unicode="j" horiz-adv-x="573" d="M-68 -446q180 45 232 145q53 104 53 375v749q0 51 -12 68.5t-53 23.5l-78 11v51l321 51l15 -12v-1002q0 -209 -69 -329.5t-253 -161.5q-86 -18 -151 -19zM188 1337q0 55 35 91t90.5 36t90 -35.5t34.5 -91.5q-2 -55 -35.5 -89t-89 -34t-90.5 35t-35 88z" />
<glyph unicode="k" horiz-adv-x="1073" d="M41 0v59q111 8 132.5 24.5t21.5 94.5v1137q0 57 -12.5 73.5t-53.5 20.5l-78 8v51l322 52l14 -13v-958h4q82 121 309 395q31 37 54.5 48.5t74.5 11.5h211v-58q-139 -14 -239 -88q-109 -80 -234 -223q-23 -25 -6 -47q164 -231 365 -430q86 -86 176 -111v-57l-154 6 q-125 8 -221 104q-199 203 -336 420h-4v-342q0 -78 21.5 -94t132.5 -25v-59h-500z" />
<glyph unicode="l" horiz-adv-x="571" d="M41 0v59q111 8 132.5 24.5t21.5 94.5v1137q0 57 -12.5 73.5t-53.5 20.5l-78 8v51l322 52l14 -13v-1329q0 -78 21.5 -94t132.5 -25v-59h-500z" />
<glyph unicode="m" horiz-adv-x="1890" d="M66 0v59q111 8 132 24.5t21 94.5v645q0 53 -12 69.5t-53 22.5l-78 11v51l317 51l19 -156q61 45 94 68t112.5 55.5t151.5 32.5q190 0 270 -158q8 4 60.5 41t86.5 56.5t94 40t120 20.5q145 0 225 -85t80 -241v-524q0 -78 21.5 -94t132.5 -25v-59h-500v59q111 8 132 24.5 t21 94.5v484q0 132 -54 196q-51 61 -141 60h-11q-84 0 -146.5 -42t-87.5 -106q-14 -39 -14 -113v-479q0 -78 21.5 -94t131.5 -25v-59h-499v59q111 8 132 24.5t21 94.5v484q0 119 -39 187.5t-157 68.5q-80 0 -145.5 -43.5t-96.5 -108.5q-16 -33 -16 -109v-479q0 -78 21.5 -94 t131.5 -25v-59h-499z" />
<glyph unicode="n" horiz-adv-x="1267" d="M66 0v59q111 8 132 24.5t21 94.5v645q0 53 -12 69.5t-53 22.5l-78 11v51l305 51l29 -156q8 6 51 34t53 34t46 26.5t53.5 26.5t49 17.5t60.5 14.5t59 3q141 0 221 -86t80 -240v-524q0 -78 21.5 -94t132.5 -25v-59h-500v59q111 8 132.5 24.5t21.5 94.5v484q0 256 -215 256 q-78 0 -143.5 -42t-100.5 -106q-20 -41 -20 -113v-479q0 -78 21.5 -94t131.5 -25v-59h-499z" />
<glyph unicode="o" horiz-adv-x="1181" d="M100 502q0 252 124 389t366 137q246 0 368.5 -136t122.5 -390t-122.5 -390.5t-368.5 -136.5q-242 0 -366 137.5t-124 389.5zM313 502q0 -217 70 -336t207 -119q139 0 208.5 119t69.5 336t-69.5 335.5t-208.5 118.5q-137 0 -207 -118.5t-70 -335.5z" />
<glyph unicode="p" horiz-adv-x="1245" d="M51 -412q109 8 131.5 24.5t22.5 94.5v1116q0 53 -12.5 69.5t-53.5 22.5l-78 11v51l310 51l26 -151q10 6 50 33.5t66 43t67 36t81.5 29.5t83.5 9q106 0 184.5 -40t118 -94t63.5 -131t29 -129t5 -110q0 -295 -141.5 -422t-372.5 -127q-152 0 -234 48v-316q0 -78 27 -94 t158 -25v-59h-531v59zM397 322q0 -82 15 -125q25 -70 83 -110t138 -40q299 0 299 465q0 123 -29 210t-74 126t-83.5 54.5t-77.5 15.5q-172 0 -244 -144q-27 -54 -27 -117v-335z" />
<glyph unicode="q" horiz-adv-x="1210" d="M100 477q0 262 144 410q137 141 383 141q156 0 270 -63l88 63h55v-1321q0 -78 22.5 -94t131.5 -25v-59h-510v59q117 8 140.5 24.5t23.5 94.5v402q-182 -133 -322 -134q-193 0 -309.5 131.5t-116.5 370.5zM313 504q0 -184 73 -301t218 -117q174 0 230 152q14 38 14 112 v346q0 76 -17 119q-53 141 -221 141q-150 0 -223.5 -124.5t-73.5 -327.5z" />
<glyph unicode="r" horiz-adv-x="796" d="M66 0v59q109 8 131 24.5t22 94.5v645q0 53 -12 69.5t-53 22.5l-78 11v51l311 51l25 -164q109 94 163 129t107 35q55 0 82 -30.5t27 -69.5q0 -47 -29 -81t-66 -34q-23 0 -41 10q-82 45 -127 45q-43 0 -79.5 -52t-36.5 -159v-479q0 -78 28.5 -94t165.5 -25v-59h-540z" />
<glyph unicode="s" horiz-adv-x="892" d="M96 342h60q70 -295 299 -295q82 0 136 46t54 124q0 49 -19.5 87t-57.5 62.5t-68.5 38t-75.5 27.5q-145 43 -226 111.5t-83 185.5q2 143 102 221t270 78q168 0 265 -70v-239h-60q-12 102 -69.5 169.5t-159.5 67.5q-80 0 -131 -44t-53 -121q0 -53 41.5 -94.5t78.5 -55.5 t99 -35q168 -51 244.5 -124.5t76.5 -202.5q0 -133 -102.5 -218.5t-280.5 -85.5q-209 0 -319 99z" />
<glyph unicode="t" horiz-adv-x="704" d="M63 922v82h156l125 258h59v-258h265v-82h-265v-635q0 -205 136 -205q82 0 145 27l16 -43q-145 -90 -262 -91q-35 0 -67.5 8.5t-71.5 30t-63.5 71.5t-24.5 124v713h-148z" />
<glyph unicode="u" horiz-adv-x="1241" d="M53 926v51l322 51l14 -12v-697q0 -115 56.5 -174t150.5 -59q80 0 148.5 42t103.5 112q16 33 16 122v461q0 53 -12 69.5t-53 22.5l-78 11v51l321 51l15 -12v-838q0 -78 22.5 -94t130.5 -25v-59h-327l-21 123q-2 -2 -75.5 -47t-147.5 -73t-152 -28q-129 0 -209.5 72 t-80.5 236v540q0 53 -12.5 69.5t-53.5 22.5z" />
<glyph unicode="v" horiz-adv-x="1032" d="M2 944v60h459v-60l-92 -10q-38 -4 -38 -34q0 -11 5 -26l121 -346l125 -344h4l137 379q78 215 102 316q3 12 3 21q0 29 -33 34l-101 10v60h389v-60q-72 -4 -98.5 -19.5t-48.5 -68.5q-90 -205 -148 -360l-182 -496h-147l-158 442q-109 299 -154 410q-23 55 -47 70.5 t-98 21.5z" />
<glyph unicode="w" horiz-adv-x="1572" d="M-4 944v60h432v-60l-72 -6q-41 -5 -41 -37q0 -11 4 -24q18 -61 89 -309.5t114 -385.5h4l238 797h156l256 -797h4q170 623 184 684q3 15 3 27q0 37 -32 41l-116 10v60h403v-60q-80 -4 -107.5 -23.5t-52.5 -95.5q-205 -639 -258 -825h-155l-252 780h-6l-242 -780h-156 q-72 256 -262 856q-18 55 -43 69.5t-92 18.5z" />
<glyph unicode="x" horiz-adv-x="995" d="M2 0v59q74 4 113 20.5t75 67.5q82 109 240 338q-195 291 -262 383q-35 49 -60.5 60.5t-91.5 15.5v60h428v-60l-61 -6q-23 -2 -27 -17.5t9 -33.5l172 -256h2l163 258q11 16 11 27q0 16 -25 20l-80 8v60h381v-60q-76 -4 -107.5 -17.5t-70.5 -60.5q-139 -168 -227 -301 q123 -197 280 -422q37 -53 70 -66.5t108 -17.5v-59h-481v59l86 11q28 4 28 23q0 13 -13 34l-183 285h-4q-139 -213 -180 -293q-10 -17 -10 -28q0 -17 24 -21l86 -11v-59h-393z" />
<glyph unicode="y" horiz-adv-x="1036" d="M-10 944v60h469v-60l-88 -8q-33 -2 -38 -19.5t7 -44.5l252 -686h4q182 496 227 678q4 17 4 30q0 35 -32 40l-107 10v60h393v-60q-74 -4 -98.5 -22.5t-52.5 -81.5q-131 -295 -379 -1008q-37 -109 -77 -178.5t-79 -100t-68.5 -40t-66.5 -9.5q-61 0 -102 34t-41 73 q0 43 29.5 79t60.5 36q29 0 61 -29q43 -43 76 -43q51 0 90 86q49 104 49 174q0 53 -16 100q-109 313 -322 824q-27 68 -54.5 85t-100.5 21z" />
<glyph unicode="z" horiz-adv-x="983" d="M39 31l645 901h-205q-164 0 -217 -44t-74 -188h-63v304h786l17 -29l-639 -903h264q172 0 238.5 49t91.5 192h63l-20 -313h-871z" />
<glyph unicode="{" horiz-adv-x="696" d="M162 547v61q106 -2 147 59.5t29 174.5l-21 192q-12 63 -6 131t23.5 124.5t75 92t147.5 35.5h53v-55q-117 -6 -146.5 -70.5t-17.5 -187.5l17 -158q2 -12 5 -48l4 -48t3 -44t-1 -45t-8 -39t-15.5 -38t-24.5 -30.5t-35.5 -30t-50.5 -21.5t-64 -18v-13q35 -8 64 -18 t50.5 -21.5t35.5 -30t24.5 -30.5t15.5 -37.5t8 -39t1 -45.5t-3 -44l-4 -48t-5 -48l-17 -158q-12 -123 18 -187.5t146 -70.5v-55h-53q-90 0 -147.5 36t-75 92t-23.5 123.5t6 131.5l21 192q14 119 -22.5 176.5t-153.5 57.5z" />
<glyph unicode="|" horiz-adv-x="466" d="M164 -512v2048h139v-2048h-139z" />
<glyph unicode="}" horiz-adv-x="696" d="M86 -207q117 6 146.5 70.5t17.5 187.5l-17 158q-2 12 -5 48l-4 48t-3 44t1 45.5t8.5 39t15.5 37.5t24.5 30.5t36 30t50 21.5t63.5 18v13q-35 8 -63.5 18t-50 21.5t-36 30t-24.5 30.5t-15.5 38t-8.5 39t-1 45t3 44l4 48t5 48l17 158q12 123 -17.5 187.5t-146.5 70.5v55h53 q90 0 147.5 -35.5t75 -92t23.5 -124t-6 -131.5l-21 -192q-12 -117 26 -175.5t151 -58.5v-61q-113 0 -151 -58.5t-26 -175.5l21 -192q12 -63 6 -131t-23.5 -124t-75 -92t-147.5 -36h-53v55z" />
<glyph unicode="~" horiz-adv-x="1167" d="M150 410q47 100 106 158.5t160 58.5q70 0 190 -47q133 -47 172 -48q51 0 81 23.5t77 93.5l82 -51q-94 -207 -246 -207q-57 0 -194 47q-125 47 -185 47q-55 0 -90 -29.5t-70 -97.5z" />
<glyph unicode="&#xa1;" horiz-adv-x="495" d="M119 899q2 57 36 93t93 36q57 0 93 -37t36 -92q0 -57 -36 -95t-93 -38q-59 0 -94 38t-35 95zM133 -307l86 882h60l81 -882q6 -76 -14 -106.5t-98 -30.5q-80 0 -100.5 30.5t-14.5 106.5z" />
<glyph unicode="&#xa2;" d="M76 709q0 256 127 381t332 137v155h81v-155q193 -2 280 -68.5t87 -134.5q0 -43 -32.5 -69.5t-73.5 -26.5q-39 0 -62 49q-74 168 -199 178v-874q109 -2 187 39.5t141 152.5l53 -33q-51 -129 -153.5 -194.5t-227.5 -67.5v-198h-81v198q-223 0 -341 135.5t-118 395.5z M276 729q1 -387 259 -442v868q-33 -2 -56.5 -8t-65.5 -30.5t-69 -66.5t-47.5 -125t-20.5 -196z" />
<glyph unicode="&#xa3;" d="M55 10l37 82q145 49 237.5 115.5t92.5 171.5q0 102 -70 217h-243v78h208q-121 217 -120 346q0 168 112.5 270.5t282.5 102.5q154 0 246 -68t92 -154q0 -39 -30 -62.5t-60 -23.5q-47 0 -60 37q-29 94 -84 146.5t-129 52.5q-88 0 -141 -60.5t-53 -154.5q0 -68 29.5 -152 t54 -128t88.5 -152h311v-78h-278q14 -53 20 -119q0 -98 -53 -173t-172 -140v-8h461q18 0 32.5 3t27.5 11t21.5 12t21.5 19.5t17 21.5t17.5 26.5t17.5 24.5l55 -18l-102 -256h-879z" />
<glyph unicode="&#xa4;" d="M86 207q-76 61 16 133l80 61q-94 121 -94 283t94 283l-80 61q-92 72 -16 133q68 57 127 -31l55 -79q101 94 275 94t274 -94l55 79q59 88 127 31q76 -61 -16 -133l-80 -61q94 -121 94 -283t-94 -283l80 -61q92 -72 16 -133q-68 -57 -127 31l-55 79q-100 -94 -274 -94 t-275 94l-55 -79q-59 -88 -127 -31zM236 684q0 -152 87 -252t220 -100t220 100t87 252t-87 252t-220 100t-220 -100t-87 -252z" />
<glyph unicode="&#xa5;" d="M-4 1309v59h448v-59l-96 -9q-47 -6 -24 -51l251 -536q29 66 114 253t116 265q23 61 -21 65l-112 13v59h403v-59l-57 -9q-41 -6 -62.5 -24.5t-52.5 -69.5q-82 -133 -241 -493h307v-78h-336q-12 -27 -12 -113v-61h348v-78h-348v-205q0 -76 27.5 -93t166.5 -26v-59h-575v59 q139 8 166.5 25.5t27.5 93.5v205h-348v78h348v59q0 76 -20 115h-328v78h299l-248 512q-35 72 -88 78z" />
<glyph unicode="&#xa6;" horiz-adv-x="466" d="M164 -358v716h139v-716h-139zM164 666v716h139v-716h-139z" />
<glyph unicode="&#xa7;" horiz-adv-x="1134" d="M94 778q0 201 178 373q8 115 92.5 206t256.5 91q111 0 193.5 -44t82.5 -108q0 -39 -27.5 -60.5t-60.5 -21.5q-35 0 -55 33q-74 129 -183 129q-72 0 -116.5 -47t-44.5 -108q0 -39 9 -67t72.5 -86t186.5 -122q188 -98 274 -202.5t86 -260.5q0 -195 -143 -379 q4 -139 -95.5 -239.5t-267.5 -100.5q-127 0 -220 52.5t-95 115.5q0 41 27.5 68t68.5 27q33 0 56 -39q86 -147 221 -148q66 0 114 49.5t48 124.5q0 84 -62.5 158t-247.5 168q-199 100 -273.5 203.5t-74.5 234.5zM201 854q0 -196 307 -358q293 -152 358 -293q68 51 68 182 q0 111 -80 213t-209 172q-12 8 -65.5 38t-67.5 39t-55 34.5t-56.5 41t-41 39t-39 47t-23.5 50.5q-96 -70 -96 -205z" />
<glyph unicode="&#xa8;" horiz-adv-x="819" d="M74 1284q0 47 32.5 81t90 34t90 -34t32.5 -81t-32.5 -82t-90 -35t-90 35t-32.5 82zM500 1284q0 47 32.5 81t90 34t90 -34t32.5 -81t-32.5 -82t-90 -35t-90 35t-32.5 82z" />
<glyph unicode="&#xa9;" horiz-adv-x="1675" d="M92 708.5q0 307.5 218 523.5t527.5 216t527.5 -216t218 -523.5t-218 -523.5t-527.5 -216t-527.5 216t-218 523.5zM223 708.5q0 -272.5 178.5 -460t436.5 -187.5t436 187.5t178 460t-178 460t-436 187.5t-436.5 -187.5t-178.5 -460zM449 713q0 190 111.5 301.5 t320.5 111.5q174 0 272 -63v-201h-41q-18 98 -68.5 152.5t-166.5 54.5q-133 0 -198 -96t-65 -242q0 -70 13.5 -131t43 -116.5t85 -88.5t131.5 -33q98 0 155.5 50.5t85.5 160.5h41l-22 -204q-86 -63 -281 -64q-215 0 -316 110.5t-101 297.5z" />
<glyph unicode="&#xaa;" horiz-adv-x="798" d="M82 727q0 53 34 89t128 69q27 10 237 80v77q0 55 -29.5 82t-68.5 27q-90 0 -127 -104q-18 -53 -57 -54q-29 0 -59.5 19.5t-30.5 46.5q0 57 85 103t199 46q76 0 125 -14t70.5 -42t28 -51.5t6.5 -56.5v-315q0 -98 51 -111q23 -4 65 0l6 -36q-45 -18 -81 -27 q-47 -10 -89 -10q-68 0 -94 78q-4 -2 -26.5 -17.5t-37 -23t-39 -18.5t-48 -16t-47.5 -5q-96 0 -148.5 53t-52.5 131zM244 741q0 -55 30.5 -90t90.5 -37q45 4 80.5 36t35.5 100v159q-53 -14 -129 -43q-109 -39 -108 -125z" />
<glyph unicode="&#xab;" horiz-adv-x="905" d="M94 457q-27 33 0 63l307 371l41 -35l-161 -334q-18 -31 0 -69l161 -336l-41 -33zM473 457q-27 33 0 63l307 371l41 -35l-162 -334q-18 -31 0 -69l162 -336l-41 -33z" />
<glyph unicode="&#xac;" horiz-adv-x="1167" d="M88 678v119h991v-588h-139v469h-852z" />
<glyph unicode="&#xad;" horiz-adv-x="802" d="M152 442v144h501v-144h-501z" />
<glyph unicode="&#xae;" horiz-adv-x="1675" d="M92 708.5q0 307.5 218 523.5t527.5 216t527.5 -216t218 -523.5t-218 -523.5t-527.5 -216t-527.5 216t-218 523.5zM223 708.5q0 -272.5 178.5 -460t436.5 -187.5t436 187.5t178 460t-178 460t-436 187.5t-436.5 -187.5t-178.5 -460zM500 326v41l63 8q41 4 41 57v563 q0 31 -8 44.5t-33 17.5l-63 8v41h368q266 0 267 -193q0 -82 -54.5 -131t-144.5 -63v-4q84 -20 114.5 -66.5t45.5 -130.5q14 -80 55 -127q20 -20 72 -35v-30h-90q-119 0 -150 88q-14 43 -29.5 116.5t-23.5 92.5q-29 61 -123 61h-70v-252q0 -53 45 -57l62 -8v-41h-344z M737 741h78q176 0 176 156q0 152 -162 152q-59 0 -75.5 -9t-16.5 -34v-265z" />
<glyph unicode="&#xaf;" horiz-adv-x="819" d="M115 1223v120h590v-120h-590z" />
<glyph unicode="&#xb0;" horiz-adv-x="716" d="M76 1110q-2 115 82 199t200 84q115 0 199 -84t84 -199q0 -117 -84 -200t-199 -83q-117 0 -199.5 83t-82.5 200zM190 1110q0 -78 49.5 -131t118.5 -53q68 0 118 53t50 131t-50 131t-120 53q-68 0 -118 -53t-48 -131z" />
<glyph unicode="&#xb1;" horiz-adv-x="1167" d="M88 0v119h991v-119h-991zM88 637v119h428v383h139v-383h424v-119h-424v-404h-139v404h-428z" />
<glyph unicode="&#xb2;" horiz-adv-x="778" d="M66 578q25 164 272 333q164 113 164 281q0 63 -29 103t-84 40q-106 0 -141 -164q-8 -49 -53 -49q-35 0 -64 21.5t-29 52.5q0 76 79 136.5t214 60.5q133 0 208 -56.5t75 -167.5q0 -92 -62.5 -157.5t-209.5 -145.5q-145 -80 -187 -188h332q47 0 70.5 15.5t44.5 56.5l47 -11 l-56 -182h-573z" />
<glyph unicode="&#xb3;" horiz-adv-x="778" d="M74 698q0 35 29.5 62.5t62.5 27.5q35 0 47 -40q47 -147 162 -148q143 0 143 186q0 53 -16.5 91t-42 53.5t-45 21.5t-37.5 6q-37 0 -75 -7t-42 -7q-35 0 -35 47q0 49 35 49q4 0 42 -7t75 -7q57 0 84.5 46t27.5 110q0 33 -7 63.5t-35.5 60t-73.5 29.5q-94 0 -133 -153 q-10 -37 -47 -37q-31 0 -57.5 21.5t-26.5 54.5q0 66 76.5 119t197.5 53q111 0 192.5 -48.5t81.5 -154.5q0 -86 -55 -130t-125 -59v-4q72 -4 144.5 -56t72.5 -159q0 -117 -88 -178t-248 -61q-123 0 -203.5 46t-80.5 109z" />
<glyph unicode="&#xb4;" horiz-adv-x="819" d="M264 1151l244 246q82 84 131 84q25 0 52.5 -30t27.5 -58q0 -49 -115 -111l-309 -172z" />
<glyph unicode="&#xb6;" horiz-adv-x="1136" d="M131 954q0 203 120 333t320 130h25v-905h-33q-188 0 -310 126t-122 316zM537 -154l151 19q31 4 43 21.5t12 60.5v1470h340v-53l-139 -18q-31 -4 -43 -18.5t-12 -57.5v-1477h-352v53z" />
<glyph unicode="&#xb7;" horiz-adv-x="542" d="M143 514q0 57 36 95t93 38q59 0 94 -38t35 -95q-2 -57 -36 -93t-93 -36q-57 0 -93 37t-36 92z" />
<glyph unicode="&#xb8;" horiz-adv-x="819" d="M334 -412q180 0 180 115q0 104 -127 111l-8 14l94 172h84l-65 -113q182 -25 182 -178q0 -55 -29 -94t-74 -55.5t-80.5 -23.5t-66.5 -7q-47 0 -90 6v53z" />
<glyph unicode="&#xb9;" horiz-adv-x="778" d="M166 557v45l113 10q43 4 43 54v579q0 43 -31 49l-125 17v39l293 43l14 -9v-718q0 -49 45 -54l111 -10v-45h-463z" />
<glyph unicode="&#xba;" horiz-adv-x="815" d="M72 874.5q0 159.5 84 246.5t250 87q168 0 252.5 -86t84.5 -248q0 -160 -84.5 -245.5t-252.5 -85.5q-166 0 -250 86t-84 245.5zM242 874q6 -274 164 -274q162 0 167 274q-6 276 -167 277q-158 -1 -164 -277z" />
<glyph unicode="&#xbb;" horiz-adv-x="905" d="M84 117l162 336q18 38 0 69l-162 334l41 35l307 -371q27 -31 0 -63l-307 -373zM463 117l162 336q18 38 0 69l-162 334l41 35l307 -371q27 -31 0 -63l-307 -373z" />
<glyph unicode="&#xbc;" horiz-adv-x="1761" d="M133 557v45l113 10q43 4 43 54v579q0 43 -31 49l-125 17v39l293 43l14 -9v-718q0 -49 45 -54l111 -10v-45h-463zM408 0l876 1423l78 -49l-881 -1429zM979 244q221 367 393 577h125v-545h131v-67h-131v-100q0 -49 45 -54l70 -10v-45h-402v45l93 10q43 4 43 54v100h-345z M1090 276h256v406h-5q-155 -234 -251 -406z" />
<glyph unicode="&#xbd;" horiz-adv-x="1761" d="M119 557v45l112 10q43 4 43 54v579q0 43 -30 49l-125 17v39l293 43l14 -9v-718q0 -49 45 -54l111 -10v-45h-463zM352 0l877 1423l78 -49l-881 -1429zM1006 20q25 164 272 334q164 113 164 281q0 63 -29 103t-84 40q-106 0 -141 -164q-8 -49 -53 -49q-35 0 -64 21.5 t-29 52.5q0 76 79 136.5t214 60.5q133 0 208 -56.5t75 -167.5q0 -92 -62.5 -157.5t-209.5 -145.5q-145 -80 -187 -188h332q47 0 70.5 15.5t44.5 56.5l47 -11l-56 -182h-573z" />
<glyph unicode="&#xbe;" horiz-adv-x="1761" d="M102 698q0 35 30 62.5t63 27.5q35 0 47 -40q47 -147 161 -148q144 0 144 186q0 53 -16.5 91t-42 53.5t-45 21.5t-37.5 6q-37 0 -75 -7t-42 -7q-35 0 -35 47q0 49 35 49q4 0 42 -7t75 -7q57 0 84.5 46t27.5 110q0 33 -7 63.5t-36 60t-74 29.5q-94 0 -133 -153 q-10 -37 -47 -37q-31 0 -57.5 21.5t-26.5 54.5q0 66 77 119t198 53q111 0 192.5 -48.5t81.5 -154.5q0 -86 -55.5 -130t-124.5 -59v-4q72 -4 144.5 -56t72.5 -159q0 -117 -88 -178t-248 -61q-123 0 -204 46t-81 109zM465 0l876 1423l78 -49l-880 -1429zM1006 244 q221 367 393 577h125v-545h131v-67h-131v-100q0 -49 45 -54l69 -10v-45h-401v45l92 10q43 4 43 54v100h-344zM1116 276h256v406h-4q-156 -234 -252 -406z" />
<glyph unicode="&#xbf;" horiz-adv-x="796" d="M61 -166q0 27 4.5 51.5t14.5 47t18 39t24.5 35t25 28.5t30 27.5t27.5 21.5t28 20l25 17q156 109 156 235q0 74 -47.5 112t-92.5 38q-33 0 -61 -8l-16 41q70 57 196 57q88 0 153.5 -53.5t65.5 -145.5q0 -68 -35.5 -117t-130.5 -122q-76 -57 -129 -145.5t-53 -178.5 q0 -207 131 -207q127 0 168 219q8 49 66 50q35 0 71.5 -26t36.5 -77q0 -29 -18.5 -65.5t-55 -76.5t-110.5 -66.5t-168 -28.5q-145 0 -233.5 70.5t-90.5 207.5zM281 901q0 55 34.5 91t92 36t91 -35t36.5 -92q0 -55 -35 -92t-92 -37q-55 0 -91 37t-36 92z" />
<glyph unicode="&#xc0;" horiz-adv-x="1300" d="M-59 0v59q94 4 125.5 30t64.5 112q51 131 221 610l215 606h152l434 -1235q27 -78 56.5 -96t121.5 -27v-59h-524v59l92 9q49 4 60.5 23.5t-5.5 64.5l-137 391h-459q-102 -319 -125 -395q-14 -41 -3.5 -59.5t55.5 -22.5l106 -11v-59h-450zM342 1716q-2 31 20.5 67t45.5 40 q41 8 133 -56l297 -202l-23 -45l-348 114q-72 23 -97.5 38.5t-27.5 43.5zM385 625h408l-203 585h-6q-182 -537 -199 -585z" />
<glyph unicode="&#xc1;" horiz-adv-x="1300" d="M-59 0v59q94 4 125.5 30t64.5 112q51 131 221 610l215 606h152l434 -1235q27 -78 56.5 -96t121.5 -27v-59h-524v59l92 9q49 4 60.5 23.5t-5.5 64.5l-137 391h-459q-102 -319 -125 -395q-14 -41 -3.5 -59.5t55.5 -22.5l106 -11v-59h-450zM385 625h408l-203 585h-6 q-182 -537 -199 -585zM440 1565l297 202q92 63 133 56q23 -4 45.5 -40t20.5 -67q-2 -29 -27.5 -44t-97.5 -38l-348 -114z" />
<glyph unicode="&#xc2;" horiz-adv-x="1300" d="M-59 0v59q94 4 125.5 30t64.5 112q51 131 221 610l215 606h152l434 -1235q27 -78 56.5 -96t121.5 -27v-59h-524v59l92 9q49 4 60.5 23.5t-5.5 64.5l-137 391h-459q-102 -319 -125 -395q-14 -41 -3.5 -59.5t55.5 -22.5l106 -11v-59h-450zM338 1511l237 234q53 49 76 49 t76 -49l238 -234l-27 -43l-219 125q-53 29 -67.5 29t-67.5 -29l-219 -125zM385 625h408l-203 585h-6q-182 -537 -199 -585z" />
<glyph unicode="&#xc3;" horiz-adv-x="1300" d="M-59 0v59q94 4 125.5 30t64.5 112q51 131 221 610l215 606h152l434 -1235q27 -78 56.5 -96t121.5 -27v-59h-524v59l92 9q49 4 60.5 23.5t-5.5 64.5l-137 391h-459q-102 -319 -125 -395q-14 -41 -3.5 -59.5t55.5 -22.5l106 -11v-59h-450zM287 1507q23 45 37 68.5 t42.5 60.5t65.5 54.5t84 17.5q57 0 162 -39q121 -39 156 -39q41 0 67.5 18.5t71.5 75.5l41 -22q-51 -100 -97.5 -147.5t-115.5 -47.5q-39 0 -164 39q-113 39 -164 39q-49 0 -81 -23.5t-66 -80.5zM385 625h408l-203 585h-6q-182 -537 -199 -585z" />
<glyph unicode="&#xc4;" horiz-adv-x="1300" d="M-59 0v59q94 4 125.5 30t64.5 112q51 131 221 610l215 606h152l434 -1235q27 -78 56.5 -96t121.5 -27v-59h-524v59l92 9q49 4 60.5 23.5t-5.5 64.5l-137 391h-459q-102 -319 -125 -395q-14 -41 -3.5 -59.5t55.5 -22.5l106 -11v-59h-450zM319 1612q0 45 32 77.5t87.5 32.5 t87 -32.5t31.5 -77.5t-32 -79t-87 -34q-53 0 -86 34t-33 79zM385 625h408l-203 585h-6q-182 -537 -199 -585zM745 1612q0 45 32 77.5t87.5 32.5t87 -32.5t31.5 -77.5t-32 -79t-87 -34q-53 0 -86 34t-33 79z" />
<glyph unicode="&#xc5;" horiz-adv-x="1284" d="M-66 0v59q94 4 126 30t65 112q51 131 221 610l199 555q-127 39 -127 190q0 106 63.5 156.5t157.5 50.5t157.5 -50t63.5 -157q0 -151 -131 -192l418 -1182q27 -78 56.5 -96t121.5 -27v-59h-524v59l92 9q49 4 60.5 23.5t-5.5 64.5l-137 391h-459q-102 -319 -125 -395 q-14 -41 -4 -59.5t56 -22.5l106 -11v-59h-451zM379 625h407l-202 585h-6q-182 -537 -199 -585zM537 1556.5q0 -139.5 102 -139.5t102 139.5t-102 139.5t-102 -139.5z" />
<glyph unicode="&#xc6;" horiz-adv-x="1794" d="M-129 0v59q86 8 119 24.5t67 74.5q49 84 102.5 181t126 234.5t130.5 241.5l252 461q37 68 -25 70l-154 12v59h1170v-336h-62q-23 162 -80 213.5t-229 51.5h-201q-49 0 -62 -13.5t-13 -60.5v-496h286q66 0 103 8.5t56.5 34t26.5 51t15 82.5h62v-432h-62q-8 59 -15 84 t-26.5 51.5t-56.5 34.5t-103 8h-286v-442q0 -131 55 -157.5t209 -26.5q201 0 282.5 51t114.5 231h62l-25 -354h-1081v59q133 10 158.5 28.5t25.5 107.5v503h-352q-248 -475 -283 -567q-20 -51 31 -57l135 -15v-59h-473zM500 776h313v559h-12z" />
<glyph unicode="&#xc7;" horiz-adv-x="1392" d="M98 698q0 330 187 539q188 211 577 211q262 0 434 -80v-319h-61q-53 328 -393 327q-137 0 -239.5 -56t-161 -153.5t-86 -213t-27.5 -248.5q0 -84 12 -166t47 -174.5t89 -162t147.5 -115.5t214.5 -46q188 0 285.5 95t144.5 274h61l-29 -342q-76 -41 -203.5 -70t-250.5 -29 l-47 -82q182 -25 182 -178q0 -55 -28.5 -94t-73.5 -55.5t-81 -23.5t-67 -7q-47 0 -90 6v53q180 0 180 115q0 104 -127 111l-8 14l80 145q-317 14 -473 170q-195 195 -195 555z" />
<glyph unicode="&#xc8;" horiz-adv-x="1241" d="M72 0v59q135 8 159.5 26.5t24.5 104.5v1037q0 86 -24.5 104.5t-159.5 26.5v59h1034v-336h-62q-23 162 -80 213.5t-229 51.5h-200q-49 0 -62.5 -12.5t-13.5 -61.5v-496h286q66 0 103 8.5t56.5 34t26.5 51t15 82.5h62v-432h-62q-8 59 -15 84t-26.5 51.5t-56.5 34.5t-103 8 h-286v-452q0 -78 10 -109t41 -45q53 -20 213 -20q205 0 283.5 51t113.5 231h62l-25 -354h-1085zM301 1716q-2 31 20.5 67t45.5 40q41 8 133 -56l297 -202l-23 -45l-348 114q-72 23 -97.5 38.5t-27.5 43.5z" />
<glyph unicode="&#xc9;" horiz-adv-x="1241" d="M72 0v59q135 8 159.5 26.5t24.5 104.5v1037q0 86 -24.5 104.5t-159.5 26.5v59h1034v-336h-62q-23 162 -80 213.5t-229 51.5h-200q-49 0 -62.5 -12.5t-13.5 -61.5v-496h286q66 0 103 8.5t56.5 34t26.5 51t15 82.5h62v-432h-62q-8 59 -15 84t-26.5 51.5t-56.5 34.5t-103 8 h-286v-452q0 -78 10 -109t41 -45q53 -20 213 -20q205 0 283.5 51t113.5 231h62l-25 -354h-1085zM475 1565l297 202q92 63 133 56q23 -4 45.5 -40t20.5 -67q-2 -29 -27.5 -44t-97.5 -38l-348 -114z" />
<glyph unicode="&#xca;" horiz-adv-x="1241" d="M72 0v59q135 8 159.5 26.5t24.5 104.5v1037q0 86 -24.5 104.5t-159.5 26.5v59h1034v-336h-62q-23 162 -80 213.5t-229 51.5h-200q-49 0 -62.5 -12.5t-13.5 -61.5v-496h286q66 0 103 8.5t56.5 34t26.5 51t15 82.5h62v-432h-62q-8 59 -15 84t-26.5 51.5t-56.5 34.5t-103 8 h-286v-452q0 -78 10 -109t41 -45q53 -20 213 -20q205 0 283.5 51t113.5 231h62l-25 -354h-1085zM307 1511l238 234q53 49 75.5 49t75.5 -49l238 -234l-27 -43l-219 125q-53 29 -67.5 29t-67.5 -29l-219 -125z" />
<glyph unicode="&#xcb;" horiz-adv-x="1241" d="M72 0v59q135 8 159.5 26.5t24.5 104.5v1037q0 86 -24.5 104.5t-159.5 26.5v59h1034v-336h-62q-23 162 -80 213.5t-229 51.5h-200q-49 0 -62.5 -12.5t-13.5 -61.5v-496h286q66 0 103 8.5t56.5 34t26.5 51t15 82.5h62v-432h-62q-8 59 -15 84t-26.5 51.5t-56.5 34.5t-103 8 h-286v-452q0 -78 10 -109t41 -45q53 -20 213 -20q205 0 283.5 51t113.5 231h62l-25 -354h-1085zM289 1612q0 45 31.5 77.5t87 32.5t87 -32.5t31.5 -77.5t-31.5 -79t-86.5 -34q-53 0 -86 34t-33 79zM715 1612q0 45 31.5 77.5t87 32.5t87 -32.5t31.5 -77.5t-31.5 -79 t-86.5 -34q-53 0 -86 34t-33 79z" />
<glyph unicode="&#xcc;" horiz-adv-x="714" d="M37 1716q-2 31 20.5 67t44.5 40q41 8 134 -56l296 -202l-22 -45l-348 114q-72 23 -97.5 38.5t-27.5 43.5zM72 0v59q135 8 159.5 26.5t24.5 104.5v1037q0 86 -24.5 104.5t-159.5 26.5v59h571v-59q-133 -10 -158.5 -27.5t-25.5 -103.5v-1037q0 -86 25.5 -103t158.5 -28v-59 h-571z" />
<glyph unicode="&#xcd;" horiz-adv-x="714" d="M72 0v59q135 8 159.5 26.5t24.5 104.5v1037q0 86 -24.5 104.5t-159.5 26.5v59h571v-59q-133 -10 -158.5 -27.5t-25.5 -103.5v-1037q0 -86 25.5 -103t158.5 -28v-59h-571zM182 1565l297 202q92 63 133 56q23 -4 45.5 -40t20.5 -67q-2 -29 -27.5 -44t-97.5 -38l-348 -114z " />
<glyph unicode="&#xce;" horiz-adv-x="714" d="M45 1511l238 234q53 49 75.5 49t75.5 -49l238 -234l-27 -43l-219 125q-53 29 -67.5 29t-67.5 -29l-219 -125zM72 0v59q135 8 159.5 26.5t24.5 104.5v1037q0 86 -24.5 104.5t-159.5 26.5v59h571v-59q-133 -10 -158.5 -27.5t-25.5 -103.5v-1037q0 -86 25.5 -103t158.5 -28 v-59h-571z" />
<glyph unicode="&#xcf;" horiz-adv-x="714" d="M27 1612q0 45 31.5 77.5t87 32.5t87 -32.5t31.5 -77.5t-32 -79t-87 -34q-53 0 -85.5 34t-32.5 79zM72 0v59q135 8 159.5 26.5t24.5 104.5v1037q0 86 -24.5 104.5t-159.5 26.5v59h571v-59q-133 -10 -158.5 -27.5t-25.5 -103.5v-1037q0 -86 25.5 -103t158.5 -28v-59h-571z M453 1612q0 45 31.5 77.5t87 32.5t87 -32.5t31.5 -77.5t-32 -79t-87 -34q-53 0 -85.5 34t-32.5 79z" />
<glyph unicode="&#xd0;" horiz-adv-x="1607" d="M41 698v78h227v451q0 86 -24.5 104.5t-159.5 26.5v59h680q375 -4 561 -178q184 -178 184 -506q0 -418 -266 -602q-190 -131 -520 -131h-639v59q135 8 159.5 26.5t24.5 104.5v508h-227zM471 256q0 -119 39 -151.5t174 -32.5q137 0 239.5 30.5t186.5 101t127 202t43 319.5 q0 610 -571 621q-164 0 -201 -18.5t-37 -98.5v-453h283v-78h-283v-442z" />
<glyph unicode="&#xd1;" horiz-adv-x="1597" d="M70 1358v59h393l799 -1130l4 -4v718q0 160 -15 254q-8 59 -46 77t-148 26v59h485v-59q-90 -6 -125 -24.5t-43 -78.5q-14 -94 -14 -254v-1001h-135l-873 1233h-4v-817q0 -160 14 -254q8 -59 46 -76.5t149 -26.5v-59h-485v59q90 6 124.5 24.5t43.5 78.5q14 94 14 254v811 q0 86 -24.5 104.5t-159.5 26.5zM446 1507q23 45 37.5 68.5t43 60.5t65.5 54.5t84 17.5q57 0 162 -39q121 -39 155 -39q41 0 68 18.5t72 75.5l41 -22q-51 -100 -97.5 -147.5t-115.5 -47.5q-39 0 -164 39q-113 39 -164 39q-49 0 -81 -23.5t-67 -80.5z" />
<glyph unicode="&#xd2;" horiz-adv-x="1560" d="M98 709q0 348 174 540q177 199 508.5 199t507.5 -199q174 -190 174 -540.5t-174 -540.5q-176 -199 -507.5 -199t-508.5 199q-174 193 -174 541zM328 709q2 -98 13 -185.5t43 -178.5t80 -156.5t130 -106.5t186.5 -41t186.5 41t130 106.5t79.5 156.5t43 178t13.5 186 q-2 98 -13.5 185t-43 178t-79.5 156.5t-130 106.5t-186.5 41t-186.5 -41t-130 -106.5t-80 -156.5t-43 -178t-13 -185zM436 1716q-2 31 20.5 67t45.5 40q41 8 133 -56l297 -202l-23 -45l-348 114q-72 23 -97.5 38.5t-27.5 43.5z" />
<glyph unicode="&#xd3;" horiz-adv-x="1560" d="M98 709q0 348 174 540q177 199 508.5 199t507.5 -199q174 -190 174 -540.5t-174 -540.5q-176 -199 -507.5 -199t-508.5 199q-174 193 -174 541zM328 709q2 -98 13 -185.5t43 -178.5t80 -156.5t130 -106.5t186.5 -41t186.5 41t130 106.5t79.5 156.5t43 178t13.5 186 q-2 98 -13.5 185t-43 178t-79.5 156.5t-130 106.5t-186.5 41t-186.5 -41t-130 -106.5t-80 -156.5t-43 -178t-13 -185zM578 1565l296 202q92 63 134 56q23 -4 45 -40t20 -67q-2 -29 -27.5 -44t-97.5 -38l-348 -114z" />
<glyph unicode="&#xd4;" horiz-adv-x="1560" d="M98 709q0 348 174 540q177 199 508.5 199t507.5 -199q174 -190 174 -540.5t-174 -540.5q-176 -199 -507.5 -199t-508.5 199q-174 193 -174 541zM328 709q2 -98 13 -185.5t43 -178.5t80 -156.5t130 -106.5t186.5 -41t186.5 41t130 106.5t79.5 156.5t43 178t13.5 186 q-2 98 -13.5 185t-43 178t-79.5 156.5t-130 106.5t-186.5 41t-186.5 -41t-130 -106.5t-80 -156.5t-43 -178t-13 -185zM467 1511l238 234q53 49 75.5 49t75.5 -49l238 -234l-27 -43l-219 125q-53 29 -67.5 29t-67.5 -29l-219 -125z" />
<glyph unicode="&#xd5;" horiz-adv-x="1560" d="M98 709q0 348 174 540q177 199 508.5 199t507.5 -199q174 -190 174 -540.5t-174 -540.5q-176 -199 -507.5 -199t-508.5 199q-174 193 -174 541zM328 709q2 -98 13 -185.5t43 -178.5t80 -156.5t130 -106.5t186.5 -41t186.5 41t130 106.5t79.5 156.5t43 178t13.5 186 q-2 98 -13.5 185t-43 178t-79.5 156.5t-130 106.5t-186.5 41t-186.5 -41t-130 -106.5t-80 -156.5t-43 -178t-13 -185zM416 1507q23 45 37 68.5t42.5 60.5t65.5 54.5t84 17.5q57 0 162 -39q121 -39 156 -39q41 0 67.5 18.5t71.5 75.5l41 -22q-51 -100 -97.5 -147.5 t-115.5 -47.5q-39 0 -164 39q-113 39 -164 39q-49 0 -81 -23.5t-66 -80.5z" />
<glyph unicode="&#xd6;" horiz-adv-x="1560" d="M98 709q0 348 174 540q177 199 508.5 199t507.5 -199q174 -190 174 -540.5t-174 -540.5q-176 -199 -507.5 -199t-508.5 199q-174 193 -174 541zM328 709q2 -98 13 -185.5t43 -178.5t80 -156.5t130 -106.5t186.5 -41t186.5 41t130 106.5t79.5 156.5t43 178t13.5 186 q-2 98 -13.5 185t-43 178t-79.5 156.5t-130 106.5t-186.5 41t-186.5 -41t-130 -106.5t-80 -156.5t-43 -178t-13 -185zM449 1612q0 45 31.5 77.5t87 32.5t87 -32.5t31.5 -77.5t-32 -79t-87 -34q-53 0 -85.5 34t-32.5 79zM874 1612q0 45 32 77.5t87.5 32.5t87 -32.5 t31.5 -77.5t-32 -79t-87 -34q-53 0 -86 34t-33 79z" />
<glyph unicode="&#xd7;" horiz-adv-x="1167" d="M129 135l367 377l-367 373l84 94l371 -377l368 377l86 -94l-366 -373l366 -377l-86 -90l-368 377l-371 -377z" />
<glyph unicode="&#xd8;" horiz-adv-x="1560" d="M98 709q0 348 174 540q176 199 508 199q217 0 365 -86l94 151l70 -43l-97 -151q35 -25 76 -70q174 -190 174 -540.5t-174 -540.5q-176 -199 -508 -199q-217 0 -366 88l-105 -166l-65 50l100 159q-31 23 -72 68q-174 193 -174 541zM328 709q4 -297 104 -469l643 1013 q-111 123 -295 123q-104 0 -186 -41t-130 -106.5t-80 -156.5t-43 -178t-13 -185zM483 168q111 -127 297 -127q104 0 186.5 41t130.5 106.5t79.5 156.5t43 178t13.5 186q-5 305 -107 473z" />
<glyph unicode="&#xd9;" horiz-adv-x="1619" d="M59 1358v59h572v-59q-133 -10 -159 -27.5t-26 -103.5v-664q0 -276 93 -399q96 -123 270 -123q176 0 272 123q92 123 93 399v664q0 86 -25 104.5t-160 26.5v59h572v-59q-133 -10 -159 -27.5t-26 -103.5v-705q0 -188 -55 -303q-117 -250 -512 -250q-393 0 -510 250 q-51 104 -55 299v709q0 86 -24.5 104.5t-160.5 26.5zM440 1716q-2 31 20.5 67t45.5 40q41 8 133 -56l297 -202l-23 -45l-348 114q-72 23 -97.5 38.5t-27.5 43.5z" />
<glyph unicode="&#xda;" horiz-adv-x="1619" d="M59 1358v59h572v-59q-133 -10 -159 -27.5t-26 -103.5v-664q0 -276 93 -399q96 -123 270 -123q176 0 272 123q92 123 93 399v664q0 86 -25 104.5t-160 26.5v59h572v-59q-133 -10 -159 -27.5t-26 -103.5v-705q0 -188 -55 -303q-117 -250 -512 -250q-393 0 -510 250 q-51 104 -55 299v709q0 86 -24.5 104.5t-160.5 26.5zM629 1565l297 202q92 63 133 56q23 -4 45 -40t20 -67q-2 -29 -27.5 -44t-97.5 -38l-348 -114z" />
<glyph unicode="&#xdb;" horiz-adv-x="1619" d="M59 1358v59h572v-59q-133 -10 -159 -27.5t-26 -103.5v-664q0 -276 93 -399q96 -123 270 -123q176 0 272 123q92 123 93 399v664q0 86 -25 104.5t-160 26.5v59h572v-59q-133 -10 -159 -27.5t-26 -103.5v-705q0 -188 -55 -303q-117 -250 -512 -250q-393 0 -510 250 q-51 104 -55 299v709q0 86 -24.5 104.5t-160.5 26.5zM498 1511l237 234q53 49 76 49t76 -49l237 -234l-26 -43l-219 125q-53 29 -67.5 29t-68.5 -29l-219 -125z" />
<glyph unicode="&#xdc;" horiz-adv-x="1619" d="M59 1358v59h572v-59q-133 -10 -159 -27.5t-26 -103.5v-664q0 -276 93 -399q96 -123 270 -123q176 0 272 123q92 123 93 399v664q0 86 -25 104.5t-160 26.5v59h572v-59q-133 -10 -159 -27.5t-26 -103.5v-705q0 -188 -55 -303q-117 -250 -512 -250q-393 0 -510 250 q-51 104 -55 299v709q0 86 -24.5 104.5t-160.5 26.5zM479 1612q0 45 32 77.5t87 32.5t87 -32.5t32 -77.5t-32 -79t-87 -34q-53 0 -86 34t-33 79zM905 1612q0 45 32 77.5t87 32.5t87 -32.5t32 -77.5t-32 -79t-87 -34q-53 0 -86 34t-33 79z" />
<glyph unicode="&#xdd;" horiz-adv-x="1204" d="M-25 1358v59h531v-59l-121 -12q-47 -6 -23 -62q127 -279 316 -618h4q231 453 299 616q25 59 -25 66l-110 10v59h448v-59q-100 -4 -132 -25.5t-87 -109.5q-117 -188 -321 -598q-27 -53 -27 -121v-314q0 -86 29.5 -104t187.5 -27v-59h-637v59q158 8 187.5 26.5t29.5 104.5 v306q0 59 -30 118q-129 260 -336 641q-33 63 -66 81t-117 22zM518 1565l297 202q92 63 133 56q23 -4 45.5 -40t20.5 -67q-2 -29 -27.5 -44t-97.5 -38l-348 -114z" />
<glyph unicode="&#xde;" horiz-adv-x="1214" d="M72 0v59q135 8 159.5 26.5t24.5 104.5v1037q0 86 -24.5 104.5t-159.5 26.5v59h571v-59q-133 -10 -158.5 -27.5t-25.5 -103.5v-94h166q242 0 360 -74q154 -96 154 -291q0 -88 -30 -157.5t-79 -113.5t-117.5 -73t-140.5 -40t-154 -11h-159v-183q0 -86 27.5 -104t172.5 -27 v-59h-587zM459 528q0 -47 22.5 -65.5t98.5 -18.5q168 0 254 72t86 240q0 145 -82 225t-230 80q-92 0 -120.5 -13.5t-28.5 -62.5v-457z" />
<glyph unicode="&#xdf;" horiz-adv-x="1230" d="M45 0v59q111 8 132.5 24.5t21.5 94.5v754q0 319 114 448q119 139 346 140q123 0 209 -36t123 -93.5t50.5 -101.5t13.5 -85q0 -94 -56 -166q-113 -16 -176 -66t-63 -132q0 -68 45 -120t162 -132q207 -139 207 -326q0 -129 -89.5 -208t-236.5 -79q-111 0 -184.5 40 t-73.5 94q0 31 23.5 54t52.5 23q31 0 47 -30q61 -109 159 -109q51 0 93.5 38t42.5 112q0 88 -46.5 149.5t-142.5 124.5q-106 72 -165.5 141.5t-59.5 163.5q0 211 240 277q45 47 45 147q0 109 -64.5 178.5t-163.5 69.5q-154 0 -217 -160q-43 -106 -43 -370v-740 q0 -78 21.5 -94t132.5 -25v-59h-500z" />
<glyph unicode="&#xe0;" horiz-adv-x="1071" d="M100 266q0 186 191 244q31 10 97.5 29.5t104 32t87 29.5t79 33.5t43.5 31.5v86q0 111 -51 157.5t-123 46.5q-152 0 -211 -200q-16 -57 -65 -58q-37 0 -76 26t-39 71q0 88 123 160.5t291 72.5q111 0 182.5 -24.5t102 -68.5t41 -84t10.5 -95v-496q0 -160 71 -176 q43 -12 105 2l12 -49q-123 -61 -241 -62q-51 0 -80 31t-54 92q-180 -119 -305 -123q-137 0 -216 84t-79 207zM227 1393q0 29 28 58.5t52 29.5q49 0 131 -84l244 -246l-31 -41l-309 172q-115 61 -115 111zM307 295q0 -94 48 -152.5t141 -58.5q78 0 142 49t64 160v289 q-39 -25 -235 -99q-86 -33 -123 -74.5t-37 -113.5z" />
<glyph unicode="&#xe1;" horiz-adv-x="1071" d="M100 266q0 186 191 244q31 10 97.5 29.5t104 32t87 29.5t79 33.5t43.5 31.5v86q0 111 -51 157.5t-123 46.5q-152 0 -211 -200q-16 -57 -65 -58q-37 0 -76 26t-39 71q0 88 123 160.5t291 72.5q111 0 182.5 -24.5t102 -68.5t41 -84t10.5 -95v-496q0 -160 71 -176 q43 -12 105 2l12 -49q-123 -61 -241 -62q-51 0 -80 31t-54 92q-180 -119 -305 -123q-137 0 -216 84t-79 207zM307 295q0 -94 48 -152.5t141 -58.5q78 0 142 49t64 160v289q-39 -25 -235 -99q-86 -33 -123 -74.5t-37 -113.5zM401 1151l244 246q82 84 131 84q25 0 52.5 -30 t27.5 -58q0 -49 -115 -111l-309 -172z" />
<glyph unicode="&#xe2;" horiz-adv-x="1071" d="M100 266q0 186 191 244q31 10 97.5 29.5t104 32t87 29.5t79 33.5t43.5 31.5v86q0 111 -51 157.5t-123 46.5q-152 0 -211 -200q-16 -57 -65 -58q-37 0 -76 26t-39 71q0 88 123 160.5t291 72.5q111 0 182.5 -24.5t102 -68.5t41 -84t10.5 -95v-496q0 -160 71 -176 q43 -12 105 2l12 -49q-123 -61 -241 -62q-51 0 -80 31t-54 92q-180 -119 -305 -123q-137 0 -216 84t-79 207zM219 1151l240 272q47 51 73.5 51.5t73.5 -51.5l240 -272l-39 -43l-211 158q-43 31 -63.5 30.5t-63.5 -30.5l-211 -158zM307 295q0 -94 48 -152.5t141 -58.5 q78 0 142 49t64 160v289q-39 -25 -235 -99q-86 -33 -123 -74.5t-37 -113.5z" />
<glyph unicode="&#xe3;" horiz-adv-x="1071" d="M100 266q0 186 191 244q31 10 97.5 29.5t104 32t87 29.5t79 33.5t43.5 31.5v86q0 111 -51 157.5t-123 46.5q-152 0 -211 -200q-16 -57 -65 -58q-37 0 -76 26t-39 71q0 88 123 160.5t291 72.5q111 0 182.5 -24.5t102 -68.5t41 -84t10.5 -95v-496q0 -160 71 -176 q43 -12 105 2l12 -49q-123 -61 -241 -62q-51 0 -80 31t-54 92q-180 -119 -305 -123q-137 0 -216 84t-79 207zM172 1180q23 45 37 68.5t43 60.5t65.5 54t83.5 17q57 0 162 -39q121 -39 156 -38q41 0 67.5 18.5t71.5 75.5l41 -23q-49 -96 -90 -141q-57 -53 -123 -53 q-39 0 -164 39q-113 39 -164 38q-49 0 -80.5 -23.5t-66.5 -80.5zM307 295q0 -94 48 -152.5t141 -58.5q78 0 142 49t64 160v289q-39 -25 -235 -99q-86 -33 -123 -74.5t-37 -113.5z" />
<glyph unicode="&#xe4;" horiz-adv-x="1071" d="M100 266q0 186 191 244q31 10 97.5 29.5t104 32t87 29.5t79 33.5t43.5 31.5v86q0 111 -51 157.5t-123 46.5q-152 0 -211 -200q-16 -57 -65 -58q-37 0 -76 26t-39 71q0 88 123 160.5t291 72.5q111 0 182.5 -24.5t102 -68.5t41 -84t10.5 -95v-496q0 -160 71 -176 q43 -12 105 2l12 -49q-123 -61 -241 -62q-51 0 -80 31t-54 92q-180 -119 -305 -123q-137 0 -216 84t-79 207zM201 1284q0 47 32.5 81t90 34t90 -34t32.5 -81t-32.5 -82t-90 -35t-90 35t-32.5 82zM307 295q0 -94 48 -152.5t141 -58.5q78 0 142 49t64 160v289 q-39 -25 -235 -99q-86 -33 -123 -74.5t-37 -113.5zM627 1284q0 47 32.5 81t90 34t90 -34t32.5 -81t-32.5 -82t-90 -35t-90 35t-32.5 82z" />
<glyph unicode="&#xe5;" horiz-adv-x="1071" d="M100 266q0 186 191 244q31 10 97.5 29.5t104 32t87 29.5t79 33.5t43.5 31.5v86q0 111 -51 157.5t-123 46.5q-152 0 -211 -200q-16 -57 -65 -58q-37 0 -76 26t-39 71q0 88 123 160.5t291 72.5q111 0 182.5 -24.5t102 -68.5t41 -84t10.5 -95v-496q0 -160 71 -176 q43 -12 105 2l12 -49q-123 -61 -241 -62q-51 0 -80 31t-54 92q-180 -119 -305 -123q-137 0 -216 84t-79 207zM307 295q0 -94 48 -152.5t141 -58.5q78 0 142 49t64 160v289q-39 -25 -235 -99q-86 -33 -123 -74.5t-37 -113.5zM315 1333.5q0 106.5 63.5 156.5t158 50t158 -50 t63.5 -156.5t-63.5 -157t-158 -50.5t-158 50.5t-63.5 157zM434 1333.5q0 -139.5 102.5 -139.5t102.5 139.5t-102.5 139.5t-102.5 -139.5z" />
<glyph unicode="&#xe6;" horiz-adv-x="1632" d="M100 266q0 186 191 244q31 10 97.5 29.5t104 32t87 29.5t79 33.5t43.5 31.5v90q0 109 -51 154.5t-121 45.5q-156 0 -215 -200q-16 -57 -61 -58q-39 0 -79 26t-40 71q0 88 123 160.5t295 72.5q209 0 285 -127q117 127 313 127q106 0 186 -31.5t122 -77t67.5 -106.5 t32 -106t6.5 -91q0 -77 -82 -77h-590q-8 -459 301 -459q111 0 179.5 57.5t117.5 159.5l61 -33q-98 -287 -399 -289q-274 -2 -379 179l-76 -56q-164 -119 -299 -123q-141 0 -220 84t-79 207zM307 295q0 -94 48 -152.5t141 -58.5q76 0 141 50t65 159v289q-39 -25 -235 -99 q-86 -33 -123 -74.5t-37 -113.5zM895 616h387q41 0 55.5 16.5t14.5 49.5q0 29 -3 59.5t-16.5 71.5t-36 70.5t-63.5 51t-94 21.5q-74 0 -126 -39.5t-76 -100t-33 -110t-9 -90.5z" />
<glyph unicode="&#xe7;" horiz-adv-x="1015" d="M100 492q0 109 27 199.5t82 168.5t154.5 123t234.5 45q158 0 257 -61.5t99 -137.5q0 -51 -41 -77.5t-82 -26.5q-43 0 -63 53q-66 178 -193 178q-115 0 -188.5 -105.5t-73.5 -322.5q0 -80 13.5 -152.5t45 -142t94 -110.5t148.5 -41q109 0 177.5 53t117.5 164l60 -29 q-35 -137 -134.5 -208.5t-216.5 -81.5l-53 -93q182 -25 183 -178q0 -55 -29 -94t-74 -55.5t-81 -23.5t-66 -7q-47 0 -90 6v53q180 0 180 115q0 104 -127 111l-8 14l82 152q-211 10 -323 139t-112 373z" />
<glyph unicode="&#xe8;" horiz-adv-x="1052" d="M100 494q0 242 120 388t351 146q106 0 186.5 -31.5t122.5 -77t67.5 -106.5t31.5 -106t6 -91q0 -77 -82 -77h-590q-8 -459 301 -459q111 0 179.5 57.5t117.5 159.5l62 -33q-98 -287 -400 -289q-244 -2 -358.5 132.5t-114.5 386.5zM248 1393q0 29 27.5 58.5t52.5 29.5 q49 0 131 -84l243 -246l-30 -41l-310 172q-115 61 -114 111zM315 616h387q41 0 55.5 16.5t14.5 49.5q0 29 -3 59.5t-16.5 71.5t-36 70.5t-63.5 51t-94 21.5q-74 0 -127 -39.5t-75.5 -100t-32 -110t-9.5 -90.5z" />
<glyph unicode="&#xe9;" horiz-adv-x="1052" d="M100 494q0 242 120 388t351 146q106 0 186.5 -31.5t122.5 -77t67.5 -106.5t31.5 -106t6 -91q0 -77 -82 -77h-590q-8 -459 301 -459q111 0 179.5 57.5t117.5 159.5l62 -33q-98 -287 -400 -289q-244 -2 -358.5 132.5t-114.5 386.5zM315 616h387q41 0 55.5 16.5t14.5 49.5 q0 29 -3 59.5t-16.5 71.5t-36 70.5t-63.5 51t-94 21.5q-74 0 -127 -39.5t-75.5 -100t-32 -110t-9.5 -90.5zM412 1151l243 246q82 84 131 84q25 0 52.5 -30t27.5 -58q0 -49 -114 -111l-310 -172z" />
<glyph unicode="&#xea;" horiz-adv-x="1052" d="M100 494q0 242 120 388t351 146q106 0 186.5 -31.5t122.5 -77t67.5 -106.5t31.5 -106t6 -91q0 -77 -82 -77h-590q-8 -459 301 -459q111 0 179.5 57.5t117.5 159.5l62 -33q-98 -287 -400 -289q-244 -2 -358.5 132.5t-114.5 386.5zM246 1151l239 272q47 51 74 51.5 t74 -51.5l239 -272l-38 -43l-211 158q-43 31 -63.5 30.5t-63.5 -30.5l-211 -158zM315 616h387q41 0 55.5 16.5t14.5 49.5q0 29 -3 59.5t-16.5 71.5t-36 70.5t-63.5 51t-94 21.5q-74 0 -127 -39.5t-75.5 -100t-32 -110t-9.5 -90.5z" />
<glyph unicode="&#xeb;" horiz-adv-x="1052" d="M100 494q0 242 120 388t351 146q106 0 186.5 -31.5t122.5 -77t67.5 -106.5t31.5 -106t6 -91q0 -77 -82 -77h-590q-8 -459 301 -459q111 0 179.5 57.5t117.5 159.5l62 -33q-98 -287 -400 -289q-244 -2 -358.5 132.5t-114.5 386.5zM190 1284q0 47 33 81t90.5 34t90 -34 t32.5 -81t-32.5 -82t-90 -35t-90.5 35t-33 82zM315 616h387q41 0 55.5 16.5t14.5 49.5q0 29 -3 59.5t-16.5 71.5t-36 70.5t-63.5 51t-94 21.5q-74 0 -127 -39.5t-75.5 -100t-32 -110t-9.5 -90.5zM616 1284q0 47 33 81t90.5 34t90 -34t32.5 -81t-32.5 -82t-90 -35t-90.5 35 t-33 82z" />
<glyph unicode="&#xec;" horiz-adv-x="595" d="M10 1393q0 29 28 58.5t52 29.5q49 0 131 -84l244 -246l-31 -41l-309 172q-115 61 -115 111zM66 0v59q111 8 132 24.5t21 94.5v645q0 53 -12 69.5t-53 22.5l-78 11v51l321 51l15 -12v-838q0 -78 21.5 -94t131.5 -25v-59h-499z" />
<glyph unicode="&#xed;" horiz-adv-x="595" d="M66 0v59q111 8 132 24.5t21 94.5v645q0 53 -12 69.5t-53 22.5l-78 11v51l321 51l15 -12v-838q0 -78 21.5 -94t131.5 -25v-59h-499zM113 1151l243 246q82 84 131 84q25 0 52.5 -30t27.5 -58q0 -49 -114 -111l-310 -172z" />
<glyph unicode="&#xee;" horiz-adv-x="595" d="M-6 1151l242 272q47 51 73.5 51.5t73.5 -51.5l240 -272l-39 -43l-211 158q-43 31 -63.5 30.5t-63.5 -30.5l-211 -158zM66 0v59q111 8 132 24.5t21 94.5v645q0 53 -12 69.5t-53 22.5l-78 11v51l321 51l15 -12v-838q0 -78 21.5 -94t131.5 -25v-59h-499z" />
<glyph unicode="&#xef;" horiz-adv-x="595" d="M-39 1284q0 47 34 81t91 34t90 -34t33 -81t-33 -82t-90 -35t-91 35t-34 82zM66 0v59q111 8 132 24.5t21 94.5v645q0 53 -12 69.5t-53 22.5l-78 11v51l321 51l15 -12v-838q0 -78 21.5 -94t131.5 -25v-59h-499zM389 1284q0 47 33 81t90 34t90 -34t33 -81t-33 -82t-90 -35 t-90 35t-33 82z" />
<glyph unicode="&#xf0;" horiz-adv-x="1181" d="M100 502q0 250 126 388t372 138q37 0 107 -12l4 6q-70 96 -172 195l-267 -121l-51 73l250 111q-86 78 -229 186v19l88 35q147 -88 266 -185l268 125l51 -74l-243 -110q119 -96 194 -189q117 -139 167 -268t50 -297q0 -547 -493 -547q-240 0 -364 138.5t-124 388.5z M313 501.5q0 -454.5 275 -454.5q152 0 216 118t64 337q0 242 -59 348t-221 106q-275 0 -275 -454.5z" />
<glyph unicode="&#xf1;" horiz-adv-x="1267" d="M66 0v59q111 8 132 24.5t21 94.5v645q0 53 -12 69.5t-53 22.5l-78 11v51l305 51l29 -156q8 6 51 34t53 34t46 26.5t53.5 26.5t49 17.5t60.5 14.5t59 3q141 0 221 -86t80 -240v-524q0 -78 21.5 -94t132.5 -25v-59h-500v59q111 8 132.5 24.5t21.5 94.5v484q0 256 -215 256 q-78 0 -143.5 -42t-100.5 -106q-20 -41 -20 -113v-479q0 -78 21.5 -94t131.5 -25v-59h-499zM270 1180q23 45 37.5 68.5t43 60.5t65.5 54t84 17q57 0 162 -39q121 -39 155 -38q41 0 67.5 18.5t71.5 75.5l41 -23q-49 -96 -90 -141q-57 -53 -123 -53q-39 0 -163 39 q-113 39 -164 38q-49 0 -81 -23.5t-67 -80.5z" />
<glyph unicode="&#xf2;" horiz-adv-x="1181" d="M100 502q0 252 124 389t366 137q246 0 368.5 -136t122.5 -390t-122.5 -390.5t-368.5 -136.5q-242 0 -366 137.5t-124 389.5zM262 1393q0 29 27.5 58.5t52.5 29.5q49 0 131 -84l244 -246l-31 -41l-309 172q-115 61 -115 111zM313 502q0 -217 70 -336t207 -119 q139 0 208.5 119t69.5 336t-69.5 335.5t-208.5 118.5q-137 0 -207 -118.5t-70 -335.5z" />
<glyph unicode="&#xf3;" horiz-adv-x="1181" d="M100 502q0 252 124 389t366 137q246 0 368.5 -136t122.5 -390t-122.5 -390.5t-368.5 -136.5q-242 0 -366 137.5t-124 389.5zM313 502q0 -217 70 -336t207 -119q139 0 208.5 119t69.5 336t-69.5 335.5t-208.5 118.5q-137 0 -207 -118.5t-70 -335.5zM426 1151l244 246 q82 84 131 84q25 0 52.5 -30t27.5 -58q0 -49 -115 -111l-309 -172z" />
<glyph unicode="&#xf4;" horiz-adv-x="1181" d="M100 502q0 252 124 389t366 137q246 0 368.5 -136t122.5 -390t-122.5 -390.5t-368.5 -136.5q-242 0 -366 137.5t-124 389.5zM279 1151l239 272q47 51 73.5 51.5t74.5 -51.5l239 -272l-39 -43l-211 158q-43 31 -63.5 30.5t-63.5 -30.5l-211 -158zM313 502q0 -217 70 -336 t207 -119q139 0 208.5 119t69.5 336t-69.5 335.5t-208.5 118.5q-137 0 -207 -118.5t-70 -335.5z" />
<glyph unicode="&#xf5;" horiz-adv-x="1181" d="M100 502q0 252 124 389t366 137q246 0 368.5 -136t122.5 -390t-122.5 -390.5t-368.5 -136.5q-242 0 -366 137.5t-124 389.5zM227 1180q23 45 37.5 68.5t43 60.5t65.5 54t84 17q57 0 161 -39q121 -39 156 -38q41 0 67.5 18.5t71.5 75.5l41 -23q-49 -96 -90 -141 q-57 -53 -123 -53q-39 0 -163 39q-113 39 -164 38q-49 0 -81 -23.5t-67 -80.5zM313 502q0 -217 70 -336t207 -119q139 0 208.5 119t69.5 336t-69.5 335.5t-208.5 118.5q-137 0 -207 -118.5t-70 -335.5z" />
<glyph unicode="&#xf6;" horiz-adv-x="1181" d="M100 502q0 252 124 389t366 137q246 0 368.5 -136t122.5 -390t-122.5 -390.5t-368.5 -136.5q-242 0 -366 137.5t-124 389.5zM256 1284q0 47 33 81t90 34t90 -34t33 -81t-33 -82t-90 -35t-90 35t-33 82zM313 502q0 -217 70 -336t207 -119q139 0 208.5 119t69.5 336 t-69.5 335.5t-208.5 118.5q-137 0 -207 -118.5t-70 -335.5zM682 1284q0 47 33 81t90 34t90 -34t33 -81t-33 -82t-90 -35t-90 35t-33 82z" />
<glyph unicode="&#xf7;" horiz-adv-x="1167" d="M88 453v118h991v-118h-991zM461 176q0 49 35.5 84t87.5 35q49 0 82.5 -35t33.5 -84q0 -51 -33.5 -87t-82.5 -36q-51 0 -87 35t-36 88zM461 852q0 49 35.5 84t87.5 35q49 0 82.5 -35t33.5 -84q0 -51 -33.5 -87t-82.5 -36q-51 0 -87 35t-36 88z" />
<glyph unicode="&#xf8;" horiz-adv-x="1181" d="M100 502q0 252 124 389t366 137q139 0 244 -47l67 109l66 -43l-66 -105q180 -129 180 -440q0 -254 -122.5 -390.5t-368.5 -136.5q-156 0 -256 58l-74 -117l-63 47l69 113q-166 129 -166 426zM303 502q0 -185 49 -289l420 670q-68 74 -182 73q-143 0 -217 -119.5 t-70 -334.5zM397 135q74 -88 193 -88q289 0 289 455q-1 202 -58 311z" />
<glyph unicode="&#xf9;" horiz-adv-x="1241" d="M53 926v51l322 51l14 -12v-697q0 -115 56.5 -174t150.5 -59q80 0 148.5 42t103.5 112q16 33 16 122v461q0 53 -12 69.5t-53 22.5l-78 11v51l321 51l15 -12v-838q0 -78 22.5 -94t130.5 -25v-59h-327l-21 123q-2 -2 -75.5 -47t-147.5 -73t-152 -28q-129 0 -209.5 72 t-80.5 236v540q0 53 -12.5 69.5t-53.5 22.5zM250 1393q0 29 27.5 58.5t52.5 29.5q49 0 131 -84l244 -246l-31 -41l-309 172q-115 61 -115 111z" />
<glyph unicode="&#xfa;" horiz-adv-x="1241" d="M53 926v51l322 51l14 -12v-697q0 -115 56.5 -174t150.5 -59q80 0 148.5 42t103.5 112q16 33 16 122v461q0 53 -12 69.5t-53 22.5l-78 11v51l321 51l15 -12v-838q0 -78 22.5 -94t130.5 -25v-59h-327l-21 123q-2 -2 -75.5 -47t-147.5 -73t-152 -28q-129 0 -209.5 72 t-80.5 236v540q0 53 -12.5 69.5t-53.5 22.5zM475 1151l244 246q82 84 131 84q25 0 52.5 -30t27.5 -58q0 -49 -115 -111l-309 -172z" />
<glyph unicode="&#xfb;" horiz-adv-x="1241" d="M53 926v51l322 51l14 -12v-697q0 -115 56.5 -174t150.5 -59q80 0 148.5 42t103.5 112q16 33 16 122v461q0 53 -12 69.5t-53 22.5l-78 11v51l321 51l15 -12v-838q0 -78 22.5 -94t130.5 -25v-59h-327l-21 123q-2 -2 -75.5 -47t-147.5 -73t-152 -28q-129 0 -209.5 72 t-80.5 236v540q0 53 -12.5 69.5t-53.5 22.5zM299 1151l240 272q47 51 73.5 51.5t73.5 -51.5l240 -272l-39 -43l-211 158q-43 31 -63.5 30.5t-63.5 -30.5l-211 -158z" />
<glyph unicode="&#xfc;" horiz-adv-x="1241" d="M53 926v51l322 51l14 -12v-697q0 -115 56.5 -174t150.5 -59q80 0 148.5 42t103.5 112q16 33 16 122v461q0 53 -12 69.5t-53 22.5l-78 11v51l321 51l15 -12v-838q0 -78 22.5 -94t130.5 -25v-59h-327l-21 123q-2 -2 -75.5 -47t-147.5 -73t-152 -28q-129 0 -209.5 72 t-80.5 236v540q0 53 -12.5 69.5t-53.5 22.5zM285 1284q0 47 32.5 81t90 34t90 -34t32.5 -81t-32.5 -82t-90 -35t-90 35t-32.5 82zM711 1284q0 47 32.5 81t90 34t90 -34t32.5 -81t-32.5 -82t-90 -35t-90 35t-32.5 82z" />
<glyph unicode="&#xfd;" horiz-adv-x="1036" d="M-10 944v60h469v-60l-88 -8q-33 -2 -38 -19.5t7 -44.5l252 -686h4q182 496 227 678q16 63 -28 70l-107 10v60h393v-60q-74 -4 -98.5 -22.5t-52.5 -81.5q-131 -295 -379 -1008q-37 -109 -77 -178.5t-79 -100t-68.5 -40t-66.5 -9.5q-61 0 -102 34t-41 73q0 43 29.5 79 t60.5 36q29 0 61 -29q43 -43 76 -43q51 0 90 86q49 104 49 174q0 53 -16 100q-109 313 -322 824q-27 68 -54.5 85t-100.5 21zM434 1151l244 246q82 84 131 84q25 0 52.5 -30t27.5 -58q0 -49 -115 -111l-309 -172z" />
<glyph unicode="&#xfe;" horiz-adv-x="1241" d="M47 -412q106 8 130 25.5t24 93.5v1567q0 57 -12.5 73.5t-53.5 20.5l-78 8v51l322 52l14 -13v-585q10 6 64.5 40.5t86 52t89 36t108.5 18.5q106 0 184.5 -40t118 -94t63 -131t29 -129t5.5 -110q0 -295 -141.5 -422t-372.5 -127q-152 0 -234 48v-316q0 -76 28 -93t157 -26 v-59h-531v59zM393 322q0 -82 15 -125q25 -70 83 -110t138 -40q299 0 299 465q0 123 -29 210t-74 126t-84 54.5t-77 15.5q-172 0 -244 -144q-27 -54 -27 -117v-335z" />
<glyph unicode="&#xff;" horiz-adv-x="1036" d="M-10 944v60h469v-60l-88 -8q-33 -2 -38 -19.5t7 -44.5l252 -686h4q182 496 227 678q16 63 -28 70l-107 10v60h393v-60q-74 -4 -98.5 -22.5t-52.5 -81.5q-131 -295 -379 -1008q-37 -109 -77 -178.5t-79 -100t-68.5 -40t-66.5 -9.5q-61 0 -102 34t-41 73q0 43 29.5 79 t60.5 36q29 0 61 -29q43 -43 76 -43q51 0 90 86q49 104 49 174q0 53 -16 100q-109 313 -322 824q-27 68 -54.5 85t-100.5 21zM213 1284q0 47 33 81t90 34t90 -34t33 -81t-33 -82t-90 -35t-90 35t-33 82zM639 1284q0 47 33 81t90 34t90 -34t33 -81t-33 -82t-90 -35t-90 35 t-33 82z" />
<glyph unicode="&#x152;" horiz-adv-x="2099" d="M98 698q0 213 80 366t207 232q195 121 543 121h1036v-336h-61q-23 162 -80.5 213.5t-229.5 51.5h-200q-47 0 -61.5 -14.5t-14.5 -59.5v-496h287q66 0 102.5 8.5t56 34t26.5 51t15 82.5h62v-432h-62q-8 59 -15 84t-26.5 51.5t-56.5 34.5t-102 8h-287v-442 q0 -131 55 -157.5t209 -26.5q201 0 283 51t114 231h62l-25 -354h-1097q-352 0 -533 115q-129 82 -208 230.5t-79 352.5zM328 709q0 -121 26.5 -226.5t85 -202t171 -152.5t266.5 -56q133 0 185 22.5t52 85.5v1059q0 61 -56.5 84t-176.5 23q-158 0 -269.5 -53.5t-171 -148.5 t-86 -201.5t-26.5 -233.5z" />
<glyph unicode="&#x153;" horiz-adv-x="1806" d="M100 502q0 252 124 389t366 137q260 0 381 -164q129 164 354 164q106 0 186 -31.5t122 -77t67.5 -106.5t32 -106t6.5 -91q0 -77 -82 -77h-590q-8 -459 301 -459q111 0 179.5 57.5t117.5 159.5l61 -33q-98 -287 -399 -289q-256 -2 -364 160q-125 -160 -373 -160 q-242 0 -366 137.5t-124 389.5zM313 502q0 -217 70 -336t207 -119q139 0 208.5 119t69.5 336t-69.5 335.5t-208.5 118.5q-137 0 -207 -118.5t-70 -335.5zM1069 616h387q41 0 55.5 16.5t14.5 49.5q0 29 -3 59.5t-16.5 71.5t-36 70.5t-63.5 51t-94 21.5q-74 0 -127 -39.5 t-76 -100t-32 -110t-9 -90.5z" />
<glyph unicode="&#x178;" horiz-adv-x="1204" d="M-25 1358v59h531v-59l-121 -12q-47 -6 -23 -62q127 -279 316 -618h4q231 453 299 616q25 59 -25 66l-110 10v59h448v-59q-100 -4 -132 -25.5t-87 -109.5q-117 -188 -321 -598q-27 -53 -27 -121v-314q0 -86 29.5 -104t187.5 -27v-59h-637v59q158 8 187.5 26.5t29.5 104.5 v306q0 59 -30 118q-129 260 -336 641q-33 63 -66 81t-117 22zM307 1612q0 45 32 77.5t87 32.5t87 -32.5t32 -77.5t-32 -79t-87 -34q-53 0 -86 34t-33 79zM733 1612q0 45 32 77.5t87 32.5t87 -32.5t32 -77.5t-32 -79t-87 -34q-53 0 -86 34t-33 79z" />
<glyph unicode="&#x2c6;" horiz-adv-x="819" d="M96 1151l240 272q47 51 73.5 51.5t73.5 -51.5l240 -272l-39 -43l-211 158q-43 31 -63.5 30.5t-63.5 -30.5l-211 -158z" />
<glyph unicode="&#x2dc;" horiz-adv-x="819" d="M45 1180q23 45 37 68.5t43 60.5t65.5 54t83.5 17q57 0 162 -39q121 -39 156 -38q41 0 67.5 18.5t71.5 75.5l41 -23q-49 -96 -90 -141q-57 -53 -123 -53q-39 0 -164 39q-113 39 -164 38q-49 0 -80.5 -23.5t-66.5 -80.5z" />
<glyph unicode="&#x2000;" horiz-adv-x="911" />
<glyph unicode="&#x2001;" horiz-adv-x="1823" />
<glyph unicode="&#x2002;" horiz-adv-x="911" />
<glyph unicode="&#x2003;" horiz-adv-x="1823" />
<glyph unicode="&#x2004;" horiz-adv-x="607" />
<glyph unicode="&#x2005;" horiz-adv-x="455" />
<glyph unicode="&#x2006;" horiz-adv-x="303" />
<glyph unicode="&#x2007;" horiz-adv-x="303" />
<glyph unicode="&#x2008;" horiz-adv-x="227" />
<glyph unicode="&#x2009;" horiz-adv-x="364" />
<glyph unicode="&#x200a;" horiz-adv-x="101" />
<glyph unicode="&#x2010;" horiz-adv-x="802" d="M152 442v144h501v-144h-501z" />
<glyph unicode="&#x2011;" horiz-adv-x="802" d="M152 442v144h501v-144h-501z" />
<glyph unicode="&#x2012;" horiz-adv-x="802" d="M152 442v144h501v-144h-501z" />
<glyph unicode="&#x2013;" horiz-adv-x="1024" d="M0 453v118h1024v-118h-1024z" />
<glyph unicode="&#x2014;" horiz-adv-x="2048" d="M0 453v118h2048v-118h-2048z" />
<glyph unicode="&#x2018;" horiz-adv-x="569" d="M147 1155q0 68 43 143.5t87 124t112 109.5l35 -33q-113 -131 -113 -229q0 -39 34 -97.5t34 -95.5q0 -43 -26.5 -70.5t-71.5 -27.5q-53 -2 -93.5 47t-40.5 129z" />
<glyph unicode="&#x2019;" horiz-adv-x="569" d="M147 999q113 131 113 230q0 39 -33.5 97t-33.5 95q0 43 26.5 71t71.5 28q53 2 93 -47.5t40 -129.5q0 -68 -43 -143.5t-87 -123.5t-112 -109z" />
<glyph unicode="&#x201a;" horiz-adv-x="569" d="M147 -223q113 131 113 229q0 39 -33.5 97.5t-33.5 95.5q0 43 26.5 70.5t71.5 27.5q53 2 93 -47t40 -129q0 -68 -43 -143.5t-87 -124t-112 -109.5z" />
<glyph unicode="&#x201c;" horiz-adv-x="937" d="M147 1155q0 68 43 143.5t87 124t112 109.5l35 -33q-113 -131 -113 -229q0 -39 34 -97.5t34 -95.5q0 -43 -26.5 -70.5t-71.5 -27.5q-53 -2 -93.5 47t-40.5 129zM516 1155q0 68 43 143.5t87 124t112 109.5l35 -33q-113 -131 -113 -229q0 -39 34 -97.5t34 -95.5 q0 -43 -27 -70.5t-72 -27.5q-53 -2 -93 47t-40 129z" />
<glyph unicode="&#x201d;" horiz-adv-x="937" d="M147 999q113 131 113 230q0 39 -33.5 97t-33.5 95q0 43 26.5 71t71.5 28q53 2 93 -47.5t40 -129.5q0 -68 -43 -143.5t-87 -123.5t-112 -109zM516 999q113 131 113 230q0 39 -34 97t-34 95q0 43 26.5 71t71.5 28q53 2 93.5 -47.5t40.5 -129.5q0 -68 -43 -143.5t-87 -123.5 t-112 -109z" />
<glyph unicode="&#x201e;" horiz-adv-x="937" d="M147 -223q113 131 113 229q0 39 -33.5 97.5t-33.5 95.5q0 43 26.5 70.5t71.5 27.5q53 2 93 -47t40 -129q0 -68 -43 -143.5t-87 -124t-112 -109.5zM516 -223q113 131 113 229q0 39 -34 97.5t-34 95.5q0 43 26.5 70.5t71.5 27.5q53 2 93.5 -47t40.5 -129q0 -68 -43 -143.5 t-87 -124t-112 -109.5z" />
<glyph unicode="&#x2022;" horiz-adv-x="837" d="M92 721q0 133 97.5 230.5t230.5 97.5t229 -97.5t96 -230.5q0 -135 -96 -231.5t-229 -96.5t-230.5 96.5t-97.5 231.5z" />
<glyph unicode="&#x2026;" horiz-adv-x="2048" d="M213 104q0 57 36 95.5t93 38.5q59 0 94 -38t35 -96q-2 -57 -36 -93t-93 -36q-57 0 -93 37t-36 92zM895 104q0 57 36 95.5t93 38.5q59 0 94 -38t35 -96q-2 -57 -36 -93t-93 -36q-57 0 -93 37t-36 92zM1577 104q0 57 36 95.5t93 38.5q59 0 94 -38t35 -96q-2 -57 -36 -93 t-93 -36q-57 0 -93 37t-36 92z" />
<glyph unicode="&#x202f;" horiz-adv-x="364" />
<glyph unicode="&#x2039;" horiz-adv-x="526" d="M94 457q-27 33 0 63l307 371l41 -35l-161 -334q-18 -31 0 -69l161 -336l-41 -33z" />
<glyph unicode="&#x203a;" horiz-adv-x="526" d="M84 117l162 336q18 39 0 69l-162 334l41 35l307 -371q27 -31 0 -63l-307 -373z" />
<glyph unicode="&#x205f;" horiz-adv-x="455" />
<glyph unicode="&#x2122;" horiz-adv-x="2252" d="M92 1210v207h780v-207h-43q-16 96 -52 124t-144 28h-70v-668q0 -49 21.5 -61t120.5 -19v-47h-443v47q98 6 119.5 18.5t21.5 61.5v668h-65q-113 0 -149.5 -27.5t-53.5 -124.5h-43zM944 567v47q61 4 87 16.5t30 47.5q6 61 6 151v461q0 47 -17.5 59.5t-97.5 20.5v47h312 q18 -45 149 -327l137 -291h4l138 293q119 254 149 325h305v-47q-80 -8 -97 -20.5t-17 -59.5v-596q0 -49 17 -61t97 -19v-47h-385v47q80 6 97.5 18.5t17.5 61.5v611h-8l-342 -715h-43l-340 715h-8v-476q0 -70 8 -151q4 -35 32.5 -46t110.5 -18v-47h-342z" />
<glyph unicode="&#x25fc;" horiz-adv-x="1003" d="M0 0v1004h1004v-1004h-1004z" />
<glyph unicode="&#xfb01;" horiz-adv-x="1249" d="M61 922v82h158v36q0 213 111 340q123 139 354 140q166 0 263 -57.5t97 -131.5q0 -45 -35.5 -69.5t-76.5 -24.5q-43 0 -58 37q-61 174 -212 174q-250 0 -250 -350v-94h299q84 0 354 24v-850q0 -78 21.5 -94t132.5 -25v-59h-500v59q111 8 132 24.5t21 94.5v649q0 55 -13 75 t-52 20h-395v-746q0 -78 24.5 -94t149.5 -23v-59h-520v59q111 8 132 24.5t21 94.5v744h-158z" />
<glyph unicode="&#xfb02;" horiz-adv-x="1249" d="M61 922v82h158v43q0 231 111 346q121 127 336 127q156 0 256 -58l129 58l14 -13v-1329q0 -78 21.5 -94t132.5 -25v-59h-500v59q111 8 132 24.5t21 94.5v1112q-23 76 -83 117t-134 41q-111 0 -177 -80t-66 -297v-67h250v-82h-250v-746q0 -78 27.5 -94t166.5 -23v-59h-540 v59q111 8 132 24.5t21 94.5v744h-158z" />
</font>
</defs>
</svg>
